<svg width="16" height="16" viewBox="0 0 16 16" fill="none" xmlns="http://www.w3.org/2000/svg">
<path d="M14 2.00024L9.66671 14.0002C9.63746 14.0641 9.5905 14.1182 9.53141 14.1561C9.47232 14.194 9.40359 14.2142 9.33338 14.2142C9.26317 14.2142 9.19444 14.194 9.13535 14.1561C9.07626 14.1182 9.0293 14.0641 9.00005 14.0002L6.66671 9.33358L2.00005 7.00024C1.93622 6.97099 1.88213 6.92403 1.84421 6.86494C1.80629 6.80586 1.78613 6.73712 1.78613 6.66691C1.78613 6.5967 1.80629 6.52797 1.84421 6.46888C1.88213 6.40979 1.93622 6.36283 2.00005 6.33358L14 2.00024Z" stroke="#3C4BBE" stroke-width="1.33333" stroke-linecap="round" stroke-linejoin="round"/>
</svg>
