<svg width="16" height="16" viewBox="0 0 16 16" fill="none" xmlns="http://www.w3.org/2000/svg">
<path fill-rule="evenodd" clip-rule="evenodd" d="M5.99987 8.43667V2H6.66653V8.78767C6.66653 9.19433 6.19887 9.43433 5.86987 9.17967L1.9452 6.13733L2.35353 5.61067L4.31253 7.129L4.07087 4.93733L4.73353 4.86433L5.04587 7.69767L5.99987 8.43667ZM8.66653 6.75133V2H9.3332V6.47667L10.0475 6.116L10.5075 4.02733L11.1589 4.17067L10.8155 5.72867L13.3499 4.45L13.6499 5.04533L9.3932 7.19267C9.0742 7.354 8.66653 7.136 8.66653 6.75133ZM13.8465 5.758L14.1532 6.35L12.1235 7.40333L13.9119 7.83833L13.7545 8.486L11.2232 7.87033L9.50653 8.76133C9.45501 8.78706 9.41156 8.8265 9.38099 8.87531C9.35041 8.92412 9.33387 8.98041 9.3332 9.038V14H8.66653V9.03767C8.66653 8.67033 8.87453 8.338 9.1992 8.16967L13.8462 5.75833L13.8465 5.758ZM3.0292 8.97533L1.46387 7.77867L1.86853 7.249L6.28053 10.622C6.40057 10.7138 6.49784 10.8321 6.56478 10.9676C6.63172 11.1031 6.66654 11.2522 6.66653 11.4033V14H5.99987V11.4033C5.99999 11.3547 5.98889 11.3066 5.96745 11.2629C5.946 11.2192 5.91478 11.181 5.8762 11.1513L3.7062 9.492L1.90887 9.945L1.74587 9.29833L3.0292 8.975V8.97533Z" fill="#EFF4FA"/>
<path d="M8.40855 4.28332C8.45518 4.35846 8.47005 4.44906 8.44989 4.53517C8.42973 4.62128 8.37619 4.69585 8.30105 4.74249C8.2259 4.78912 8.13531 4.80399 8.0492 4.78383C7.96309 4.76367 7.88851 4.71013 7.84188 4.63499C7.79525 4.55984 7.78037 4.46925 7.80053 4.38314C7.82069 4.29703 7.87424 4.22245 7.94938 4.17582C8.02453 4.12919 8.11512 4.11431 8.20123 4.13447C8.28734 4.15463 8.36191 4.20817 8.40855 4.28332ZM7.74188 7.28332C7.78851 7.35846 7.80339 7.44906 7.78323 7.53517C7.76307 7.62128 7.70953 7.69585 7.63438 7.74249C7.55924 7.78912 7.46864 7.80399 7.38253 7.78383C7.29642 7.76367 7.22185 7.71013 7.17521 7.63499C7.1521 7.59778 7.13654 7.55638 7.12943 7.51316C7.12231 7.46994 7.12378 7.42574 7.13375 7.38309C7.14372 7.34044 7.16199 7.30016 7.18752 7.26457C7.21305 7.22898 7.24534 7.19876 7.28255 7.17565C7.31976 7.15254 7.36115 7.13698 7.40437 7.12987C7.44759 7.12275 7.49179 7.12422 7.53444 7.13419C7.5771 7.14415 7.61737 7.16243 7.65296 7.18796C7.68855 7.21349 7.71877 7.24611 7.74188 7.28332ZM8.07521 9.61665C8.0983 9.65386 8.11384 9.69525 8.12093 9.73846C8.12803 9.78168 8.12654 9.82586 8.11656 9.8685C8.10658 9.91114 8.0883 9.95139 8.06276 9.98696C8.03722 10.0225 8.00492 10.0527 7.96771 10.0758C7.93051 10.0989 7.88911 10.1144 7.8459 10.1215C7.80269 10.1286 7.7585 10.1271 7.71587 10.1172C7.67323 10.1072 7.63298 10.0889 7.5974 10.0634C7.56183 10.0378 7.53164 10.0055 7.50855 9.96832C7.46187 9.89317 7.44695 9.80256 7.46708 9.71642C7.48721 9.63028 7.54074 9.55566 7.61588 9.50899C7.69103 9.46231 7.78164 9.44739 7.86778 9.46752C7.95392 9.48765 8.02854 9.54151 8.07521 9.61665ZM7.74188 12.6167C7.76497 12.6539 7.78051 12.6953 7.7876 12.7385C7.7947 12.7817 7.79321 12.8259 7.78323 12.8685C7.77325 12.9111 7.75496 12.9514 7.72942 12.987C7.70388 13.0225 7.67159 13.0527 7.63438 13.0758C7.55924 13.1225 7.46864 13.1373 7.38253 13.1172C7.29642 13.097 7.22185 13.0435 7.17521 12.9683C7.1521 12.9311 7.13654 12.8897 7.12943 12.8465C7.12231 12.8033 7.12378 12.7591 7.13375 12.7164C7.14372 12.6738 7.16199 12.6335 7.18752 12.5979C7.21305 12.5623 7.24534 12.5321 7.28255 12.509C7.31976 12.4859 7.36115 12.4703 7.40437 12.4632C7.44759 12.4561 7.49179 12.4576 7.53444 12.4675C7.62059 12.4876 7.6952 12.5415 7.74188 12.6167ZM7.74188 2.94999C7.78851 3.02513 7.80339 3.11572 7.78323 3.20183C7.76307 3.28794 7.70953 3.36252 7.63438 3.40915C7.55924 3.45579 7.46864 3.47066 7.38253 3.4505C7.29642 3.43034 7.22185 3.3768 7.17521 3.30165C7.12858 3.22651 7.11371 3.13592 7.13387 3.0498C7.15403 2.96369 7.20757 2.88912 7.28271 2.84249C7.35786 2.79585 7.44845 2.78098 7.53456 2.80114C7.62067 2.8213 7.69525 2.87484 7.74188 2.94999Z" fill="#EFF4FA"/>
</svg>
