<svg width="28" height="28" viewBox="0 0 28 28" fill="none" xmlns="http://www.w3.org/2000/svg">
<path d="M22.751 3.71899H19.9072V2.62524C19.9072 2.4512 19.8381 2.28428 19.715 2.1612C19.5919 2.03813 19.425 1.96899 19.251 1.96899C19.0769 1.96899 18.91 2.03813 18.7869 2.1612C18.6639 2.28428 18.5947 2.4512 18.5947 2.62524V3.71899H9.40722V2.62524C9.40722 2.4512 9.33808 2.28428 9.21501 2.1612C9.09194 2.03813 8.92502 1.96899 8.75097 1.96899C8.57692 1.96899 8.41001 2.03813 8.28693 2.1612C8.16386 2.28428 8.09472 2.4512 8.09472 2.62524V3.71899H5.25098C4.84486 3.71899 4.45538 3.88032 4.16822 4.16748C3.88105 4.45465 3.71973 4.84413 3.71973 5.25024V22.7502C3.71973 23.1563 3.88105 23.5458 4.16822 23.833C4.45538 24.1201 4.84486 24.2815 5.25098 24.2815H22.751C23.1571 24.2815 23.5466 24.1201 23.8337 23.833C24.1209 23.5458 24.2822 23.1563 24.2822 22.7502V5.25024C24.2822 4.84413 24.1209 4.45465 23.8337 4.16748C23.5466 3.88032 23.1571 3.71899 22.751 3.71899ZM5.25098 5.03149H8.09472V6.12524C8.09472 6.29929 8.16386 6.46621 8.28693 6.58928C8.41001 6.71235 8.57692 6.78149 8.75097 6.78149C8.92502 6.78149 9.09194 6.71235 9.21501 6.58928C9.33808 6.46621 9.40722 6.29929 9.40722 6.12524V5.03149H18.5947V6.12524C18.5947 6.29929 18.6639 6.46621 18.7869 6.58928C18.91 6.71235 19.0769 6.78149 19.251 6.78149C19.425 6.78149 19.5919 6.71235 19.715 6.58928C19.8381 6.46621 19.9072 6.29929 19.9072 6.12524V5.03149H22.751C22.809 5.03149 22.8646 5.05454 22.9056 5.09556C22.9467 5.13658 22.9697 5.19222 22.9697 5.25024V8.96898H5.03223V5.25024C5.03223 5.19222 5.05527 5.13658 5.0963 5.09556C5.13732 5.05454 5.19296 5.03149 5.25098 5.03149ZM22.751 22.969H5.25098C5.19296 22.969 5.13732 22.9459 5.0963 22.9049C5.05527 22.8639 5.03223 22.8082 5.03223 22.7502V10.2815H22.9697V22.7502C22.9697 22.8082 22.9467 22.8639 22.9056 22.9049C22.8646 22.9459 22.809 22.969 22.751 22.969Z" fill="white"/>
</svg>
