<svg width="28" height="28" viewBox="0 0 28 28" fill="none" xmlns="http://www.w3.org/2000/svg">
<g clip-path="url(#clip0_62_6376)">
<path d="M15.9493 13.1058C15.9095 13.0491 15.8815 12.9854 15.867 12.9182C15.8525 12.8511 15.8518 12.7818 15.8649 12.7143C15.8779 12.6469 15.9045 12.5826 15.9432 12.5251C15.9818 12.4677 16.0317 12.4182 16.09 12.3795L22.1528 8.3462C22.2705 8.2679 22.4155 8.23827 22.5557 8.26383C22.6959 8.28939 22.82 8.36805 22.9005 8.4825C22.9811 8.59695 23.0116 8.73783 22.9853 8.87412C22.959 9.01042 22.8781 9.13099 22.7603 9.20929L16.6967 13.2417C16.579 13.32 16.4342 13.3496 16.294 13.3242C16.1539 13.2987 16.0299 13.2201 15.9493 13.1058ZM22.9046 20.5165C22.824 20.6308 22.7 20.7094 22.5599 20.7349C22.4197 20.7604 22.2749 20.7307 22.1573 20.6524L13.8543 15.1325L9.82205 17.814C10.1367 18.4867 10.1812 19.2495 9.94682 19.9525C9.71243 20.6554 9.21609 21.2478 8.55528 21.6132C7.89447 21.9787 7.11696 22.0908 6.37546 21.9275C5.63397 21.7643 4.98207 21.3374 4.54782 20.7308C4.11358 20.1243 3.92836 19.3818 4.02856 18.6493C4.12876 17.9168 4.50713 17.2472 5.08935 16.7719C5.67157 16.2967 6.41556 16.0503 7.17519 16.081C7.93483 16.1117 8.6552 16.4173 9.19481 16.9379C9.20002 16.9441 9.20571 16.9499 9.21183 16.9553L12.9018 14.4993L9.21542 12.0468L9.19481 12.0607C8.65602 12.5819 7.93623 12.8885 7.17678 12.9203C6.41732 12.9521 5.67307 12.7068 5.09016 12.2326C4.50725 11.7583 4.1278 11.0895 4.02631 10.3572C3.92482 9.62501 4.10863 8.88237 4.54164 8.27512C4.97465 7.66787 5.62558 7.23989 6.36662 7.07522C7.10766 6.91055 7.88526 7.02109 8.54675 7.38512C9.20823 7.74915 9.70581 8.34038 9.94177 9.04272C10.1777 9.74506 10.135 10.5078 9.82205 11.1811L22.7594 19.7858C22.8187 19.8242 22.8696 19.8737 22.909 19.9313C22.9485 19.989 22.9757 20.0537 22.9893 20.1217C23.0028 20.1896 23.0022 20.2596 22.9877 20.3274C22.9732 20.3951 22.9449 20.4594 22.9046 20.5165ZM8.43853 11.3248C8.71414 11.0568 8.9018 10.7154 8.97779 10.3437C9.05377 9.97206 9.01468 9.58686 8.86545 9.2368C8.71622 8.88674 8.46354 8.58755 8.13938 8.37705C7.81521 8.16656 7.43411 8.05421 7.04426 8.05421C6.6544 8.05421 6.2733 8.16656 5.94914 8.37705C5.62497 8.58755 5.3723 8.88674 5.22307 9.2368C5.07383 9.58686 5.03474 9.97206 5.11073 10.3437C5.18672 10.7154 5.37438 11.0568 5.64998 11.3248C5.83232 11.504 6.04945 11.6464 6.28878 11.7435C6.52811 11.8406 6.7849 11.8907 7.04426 11.8907C7.30362 11.8907 7.5604 11.8406 7.79973 11.7435C8.03907 11.6464 8.25619 11.504 8.43853 11.3248ZM9.0156 19.0281C9.01544 18.5848 8.85716 18.1553 8.56772 17.8128C8.27828 17.4702 7.87559 17.2358 7.42825 17.1494C6.98092 17.0631 6.51662 17.1301 6.11446 17.3392C5.7123 17.5483 5.39717 17.8864 5.22276 18.296C5.04835 18.7056 5.02545 19.1613 5.15796 19.5854C5.29047 20.0096 5.57019 20.376 5.94946 20.6221C6.32874 20.8683 6.7841 20.9791 7.23797 20.9355C7.69183 20.892 8.11612 20.6968 8.43853 20.3833C8.62204 20.2056 8.76753 19.9944 8.86657 19.7618C8.96562 19.5292 9.01627 19.2798 9.0156 19.0281Z" fill="white"/>
<path d="M27.499 13.9997C27.499 21.4556 21.4548 27.4997 13.999 27.4997C6.54317 27.4997 0.499023 21.4556 0.499023 13.9997C0.499023 6.5439 6.54317 0.499755 13.999 0.499755C21.4548 0.499755 27.499 6.5439 27.499 13.9997Z" stroke="white" stroke-width="0.999999"/>
<line x1="6.40144" y1="2.70567" x2="22.4014" y2="24.7056" stroke="white" stroke-width="0.999999"/>
</g>
<defs>
<clipPath id="clip0_62_6376">
<rect width="28" height="28" fill="white"/>
</clipPath>
</defs>
</svg>
