<svg width="28" height="28" viewBox="0 0 28 28" fill="none" xmlns="http://www.w3.org/2000/svg">
<path d="M21.6553 22.3674V25.3752C21.6553 25.5493 21.5862 25.7162 21.4631 25.8393C21.34 25.9623 21.1731 26.0315 20.9991 26.0315C20.825 26.0315 20.6581 25.9623 20.535 25.8393C20.412 25.7162 20.3428 25.5493 20.3428 25.3752V22.3674C20.3468 21.0265 19.9751 19.7113 19.2699 18.5707C18.5647 17.4302 17.5542 16.51 16.3528 15.9143L11.0591 13.2674C9.6379 12.563 8.44266 11.4742 7.60902 10.1248C6.77537 8.77535 6.33672 7.21922 6.34284 5.63305V2.62524C6.34284 2.4512 6.41198 2.28428 6.53505 2.1612C6.65812 2.03813 6.82504 1.96899 6.99909 1.96899C7.17313 1.96899 7.34005 2.03813 7.46312 2.1612C7.58619 2.28428 7.65534 2.4512 7.65534 2.62524V5.63305C7.6514 6.97397 8.02309 8.2892 8.72828 9.42972C9.43347 10.5702 10.444 11.4905 11.6453 12.0862L16.9391 14.733C18.3603 15.4375 19.5555 16.5262 20.3891 17.8757C21.2228 19.2251 21.6614 20.7812 21.6553 22.3674ZM17.4991 22.094H7.6608C7.69065 21.3468 7.8364 20.6089 8.09284 19.9065H16.2008C16.3748 19.9065 16.5418 19.8373 16.6648 19.7143C16.7879 19.5912 16.857 19.4243 16.857 19.2502C16.857 19.0762 16.7879 18.9093 16.6648 18.7862C16.5418 18.6631 16.3748 18.594 16.2008 18.594H8.72393C9.211 17.7969 9.84847 17.1023 10.6008 16.5487C10.7365 16.444 10.8258 16.2904 10.8498 16.1208C10.8737 15.9511 10.8304 15.7788 10.7289 15.6407C10.6275 15.5025 10.4761 15.4096 10.3071 15.3816C10.138 15.3536 9.96473 15.3929 9.82424 15.491C8.74675 16.2852 7.87052 17.321 7.2659 18.5152C6.66128 19.7095 6.34513 21.0288 6.34284 22.3674V25.3752C6.34284 25.5493 6.41198 25.7162 6.53505 25.8393C6.65812 25.9623 6.82504 26.0315 6.99909 26.0315C7.17313 26.0315 7.34005 25.9623 7.46312 25.8393C7.58619 25.7162 7.65534 25.5493 7.65534 25.3752V23.4065H17.4991C17.6731 23.4065 17.84 23.3373 17.9631 23.2143C18.0862 23.0912 18.1553 22.9243 18.1553 22.7502C18.1553 22.5762 18.0862 22.4092 17.9631 22.2862C17.84 22.1631 17.6731 22.094 17.4991 22.094ZM20.9991 1.96899C20.825 1.96899 20.6581 2.03813 20.535 2.1612C20.412 2.28428 20.3428 2.4512 20.3428 2.62524V4.59399H10.4991C10.325 4.59399 10.1581 4.66313 10.035 4.7862C9.91197 4.90927 9.84283 5.07619 9.84283 5.25024C9.84283 5.42429 9.91197 5.59121 10.035 5.71428C10.1581 5.83735 10.325 5.90649 10.4991 5.90649H20.3428C20.3112 6.65392 20.1636 7.39189 19.9053 8.09399H11.7996C11.6255 8.09399 11.4586 8.16313 11.3355 8.2862C11.2124 8.40927 11.1433 8.57619 11.1433 8.75024C11.1433 8.92428 11.2124 9.0912 11.3355 9.21427C11.4586 9.33734 11.6255 9.40648 11.7996 9.40648H19.2742C18.7872 10.2035 18.1497 10.8982 17.3974 11.4518C17.2617 11.5565 17.1723 11.71 17.1484 11.8797C17.1244 12.0494 17.1678 12.2217 17.2692 12.3598C17.3706 12.4979 17.522 12.5909 17.6911 12.6189C17.8601 12.6468 18.0334 12.6076 18.1739 12.5094C19.2514 11.7152 20.1276 10.6794 20.7323 9.48521C21.3369 8.29098 21.653 6.97161 21.6553 5.63305V2.62524C21.6553 2.4512 21.5862 2.28428 21.4631 2.1612C21.34 2.03813 21.1731 1.96899 20.9991 1.96899Z" fill="white"/>
</svg>
