<svg width="136" height="24" viewBox="0 0 136 24" fill="none" xmlns="http://www.w3.org/2000/svg">
<path d="M11.9998 17.27L16.1498 19.78C16.9098 20.24 17.8398 19.56 17.6398 18.7L16.5398 13.98L20.2098 10.8C20.8798 10.22 20.5198 9.12001 19.6398 9.05001L14.8098 8.64001L12.9198 4.18001C12.5798 3.37001 11.4198 3.37001 11.0798 4.18001L9.18983 8.63001L4.35983 9.04001C3.47983 9.11001 3.11983 10.21 3.78983 10.79L7.45983 13.97L6.35983 18.69C6.15983 19.55 7.08983 20.23 7.84983 19.77L11.9998 17.27Z" fill="#FAC30A"/>
<path d="M39.9998 17.27L44.1498 19.78C44.9098 20.24 45.8398 19.56 45.6398 18.7L44.5398 13.98L48.2098 10.8C48.8798 10.22 48.5198 9.12001 47.6398 9.05001L42.8098 8.64001L40.9198 4.18001C40.5798 3.37001 39.4198 3.37001 39.0798 4.18001L37.1898 8.63001L32.3598 9.04001C31.4798 9.11001 31.1198 10.21 31.7898 10.79L35.4598 13.97L34.3598 18.69C34.1598 19.55 35.0898 20.23 35.8498 19.77L39.9998 17.27Z" fill="#FAC30A"/>
<path d="M67.9998 17.27L72.1498 19.78C72.9098 20.24 73.8398 19.56 73.6398 18.7L72.5398 13.98L76.2098 10.8C76.8798 10.22 76.5198 9.12001 75.6398 9.05001L70.8098 8.64001L68.9198 4.18001C68.5798 3.37001 67.4198 3.37001 67.0798 4.18001L65.1898 8.63001L60.3598 9.04001C59.4798 9.11001 59.1198 10.21 59.7898 10.79L63.4598 13.97L62.3598 18.69C62.1598 19.55 63.0898 20.23 63.8498 19.77L67.9998 17.27Z" fill="#FAC30A"/>
<path d="M95.9998 17.27L100.15 19.78C100.91 20.24 101.84 19.56 101.64 18.7L100.54 13.98L104.21 10.8C104.88 10.22 104.52 9.12001 103.64 9.05001L98.8098 8.64001L96.9198 4.18001C96.5798 3.37001 95.4198 3.37001 95.0798 4.18001L93.1898 8.63001L88.3598 9.04001C87.4798 9.11001 87.1198 10.21 87.7898 10.79L91.4598 13.97L90.3598 18.69C90.1598 19.55 91.0898 20.23 91.8498 19.77L95.9998 17.27Z" fill="#FAC30A"/>
<path d="M124 17.27L128.15 19.78C128.91 20.24 129.84 19.56 129.64 18.7L128.54 13.98L132.21 10.8C132.88 10.22 132.52 9.12001 131.64 9.05001L126.81 8.64001L124.92 4.18001C124.58 3.37001 123.42 3.37001 123.08 4.18001L121.19 8.63001L116.36 9.04001C115.48 9.11001 115.12 10.21 115.79 10.79L119.46 13.97L118.36 18.69C118.16 19.55 119.09 20.23 119.85 19.77L124 17.27Z" fill="#FAC30A"/>
</svg>
