<svg width="25" height="24" viewBox="0 0 25 24" fill="none" xmlns="http://www.w3.org/2000/svg">
<path d="M22.9463 8.8125C22.9463 15.375 13.216 20.6869 12.8016 20.9062C12.6924 20.965 12.5703 20.9958 12.4463 20.9958C12.3223 20.9958 12.2002 20.965 12.091 20.9062C11.6766 20.6869 1.94629 15.375 1.94629 8.8125C1.94803 7.27146 2.56097 5.79404 3.65065 4.70436C4.74033 3.61468 6.21775 3.00174 7.75879 3C9.69473 3 11.3897 3.8325 12.4463 5.23969C13.5029 3.8325 15.1979 3 17.1338 3C18.6748 3.00174 20.1522 3.61468 21.2419 4.70436C22.3316 5.79404 22.9445 7.27146 22.9463 8.8125Z" fill="#EFF4FA"/>
</svg>
