<svg width="74" height="73" viewBox="0 0 74 73" fill="none" xmlns="http://www.w3.org/2000/svg">
<path d="M54.8764 0.0541746C54.7622 0.0970023 54.1059 0.682314 53.421 1.35328L52.1654 2.59528L51.1952 1.62452C50.6387 1.08204 50.0395 0.610934 49.7684 0.539555C48.8267 0.268313 48.0277 0.882176 48.0277 1.89576C48.0277 2.33832 48.1561 2.55245 49.0264 3.43756C49.5829 4.0086 50.0252 4.5368 50.0252 4.60818C50.0252 4.67956 49.2975 5.46474 48.4129 6.34984L46.8149 7.94874L45.9588 7.07791C44.7032 5.80736 44.161 5.57894 43.3192 6.0215C42.8626 6.26419 42.5344 7.04936 42.6914 7.54902C42.7485 7.7346 43.2478 8.34846 43.79 8.9195L44.8031 9.94736L43.1052 11.6605L41.4215 13.3736L41.5071 13.9732C41.6213 14.844 42.3918 15.3865 43.2193 15.1723C43.3905 15.1295 46.4867 12.1459 50.0965 8.51978C56.5743 2.03852 56.6599 1.95287 56.6599 1.38183C56.6599 0.967831 56.56 0.710865 56.3032 0.453899C55.9322 0.0970023 55.2616 -0.10286 54.8764 0.0541746Z" fill="#3C4BBE"/>
<path d="M39.3954 0.368244C39.1672 0.511003 36.9699 2.65239 34.53 5.10784C29.2651 10.4185 29.2651 10.4042 29.2651 12.6027C29.2651 13.9303 29.2936 14.1016 29.7074 14.8868L30.1497 15.7291L27.3817 18.5272L24.6279 21.3252V21.9962C24.6279 22.6672 24.6422 22.6957 26.226 24.3089L27.824 25.9506L21.7315 32.0464C18.3928 35.4013 15.5962 38.3136 15.5106 38.5134C15.1254 39.5698 16.2097 40.6262 17.2656 40.2122C17.4796 40.1409 20.3903 37.3428 23.7433 34.0165L29.8358 27.9493L31.4338 29.5196C33.0033 31.0614 33.0319 31.0757 33.7025 31.0757H34.3873L37.1839 28.2919L39.9662 25.5081L40.3942 25.7936C41.5927 26.5788 43.4904 26.7501 44.9743 26.2076C45.7876 25.9221 46.2727 25.451 57.5445 14.1873C63.9937 7.7346 69.3443 2.29549 69.4441 2.06707C69.8579 1.05349 68.8734 0.0256228 67.7605 0.311141C67.4894 0.368244 63.6227 4.13708 55.7325 12.0174C45.2882 22.4388 44.0469 23.6379 43.5617 23.7379C42.3204 23.952 42.2063 23.8664 37.0127 18.6842C31.8333 13.4878 31.7477 13.3736 31.9618 12.1316C32.0616 11.6605 32.6466 11.0181 36.7701 6.87805C41.2646 2.35259 41.4643 2.12418 41.4643 1.61025C41.4643 0.925004 41.2788 0.582382 40.7509 0.311141C40.2087 0.0256228 39.9091 0.0398987 39.3954 0.368244ZM35.115 20.6543L37.9686 23.5095L33.6882 27.7922L30.8774 24.9799C29.3221 23.4238 28.0523 22.0961 28.0523 22.0105C28.0523 21.8677 32.0474 17.7991 32.19 17.7991C32.2328 17.7991 33.5455 19.0839 35.115 20.6543Z" fill="#3C4BBE"/>
<path d="M1.85599 39.1701C1.68477 39.1987 1.39941 39.3842 1.21392 39.5841L0.871488 39.9553L0.842952 54.6023C0.814416 66.1087 0.842952 69.3351 0.985633 69.6206C1.08551 69.8204 1.38514 70.0774 1.65624 70.2202C2.11282 70.4343 2.2555 70.4343 3.29707 70.2344C4.60974 69.9918 6.32191 70.0631 7.50617 70.42C7.93421 70.5485 9.0614 71.0196 10.0031 71.4907C13.3133 73.1039 16.3096 73.418 19.4629 72.4615C19.9908 72.2902 21.1893 71.7905 22.131 71.3337C24.2142 70.3201 24.9989 70.1202 26.8395 70.1345C28.6515 70.1345 29.5504 70.3772 31.7763 71.4622C34.159 72.6185 35.486 72.9469 37.6833 72.9469C40.0946 72.9469 41.6926 72.5329 43.9613 71.3194C45.5593 70.4629 46.8434 70.1345 48.5984 70.1345C50.4961 70.1345 51.4092 70.3772 53.635 71.4764C56.2318 72.747 58.5433 73.2038 60.9118 72.904C62.5526 72.7042 63.7511 72.3187 65.6488 71.4051C67.8461 70.3344 68.6594 70.1488 71.085 70.1345C73.2395 70.1202 73.4107 70.0631 73.696 69.3636C73.8102 69.0924 73.853 64.9524 73.8244 54.4596L73.7816 39.9267L73.3821 39.5413L72.9969 39.1416H54.6195L54.2486 39.4842C53.5352 40.1694 53.6921 41.3829 54.5482 41.7683C54.7765 41.8825 57.4589 41.9254 62.9379 41.9254H70.9994V45.2802C70.9994 48.3781 70.9851 48.635 70.7568 48.635C70.0434 48.635 67.8461 48.9634 67.147 49.1632C66.7189 49.2774 65.6203 49.72 64.7071 50.1483C62.4242 51.2047 61.1401 51.533 59.3708 51.533C57.6016 51.5473 56.8026 51.3189 54.5197 50.1911C52.3366 49.1204 50.81 48.7492 48.6697 48.7492C46.5581 48.7492 45.0314 49.1204 42.7342 50.2054C40.5797 51.2332 39.4097 51.533 37.6119 51.533C35.8998 51.533 34.7868 51.2475 33.0319 50.3624C30.4636 49.049 28.1522 48.5636 25.5554 48.7921C23.9003 48.9491 22.6589 49.3345 20.7755 50.2767C18.7637 51.2903 17.7935 51.5473 15.9244 51.5473C14.0552 51.5473 13.085 51.3046 11.0161 50.2767C10.1458 49.8627 9.00432 49.3774 8.46213 49.2203C7.22081 48.8349 5.19473 48.5922 4.33864 48.7064L3.65377 48.8063V41.9111L4.19596 41.9967C5.90814 42.2965 7.83434 43.0674 9.24688 44.0382C12.4001 46.1938 16.8375 46.6792 20.4902 45.2516C21.0038 45.0518 22.0311 44.5093 22.8016 44.0382C24.4995 42.996 25.6124 42.5392 27.2675 42.1966C28.4233 41.9539 29.2793 41.9254 35.7143 41.9254H42.8626L43.2906 41.5685C43.8471 41.0974 43.9755 40.512 43.6759 39.9267C43.2336 39.0844 43.1337 39.0702 35.9426 39.0702C32.347 39.0702 28.8656 39.1416 28.195 39.2129C25.7123 39.4985 23.7148 40.198 21.5317 41.5542C18.8351 43.2245 16.438 43.6813 13.7841 43.0389C12.8425 42.8105 11.8009 42.3251 10.2457 41.3829C7.99129 40.0267 6.37899 39.4556 4.08182 39.2129C2.69781 39.0702 2.38391 39.0702 1.85599 39.1701ZM7.50617 51.8471C7.93421 51.9756 9.08993 52.461 10.0744 52.9321C12.6284 54.1312 13.2705 54.274 15.9244 54.274C18.621 54.274 19.2346 54.1312 21.917 52.8607C24.2284 51.7614 24.9704 51.5616 26.8395 51.5759C28.6373 51.5759 29.6931 51.8471 31.6193 52.7893C34.1448 54.0313 35.3861 54.3454 37.6833 54.3454C39.9234 54.3454 41.607 53.9171 43.8186 52.8036C45.6734 51.8756 46.8577 51.5759 48.5984 51.5616C50.4961 51.5616 51.2665 51.7614 53.3069 52.7322C56.2461 54.1455 57.4589 54.431 60.1698 54.3025C62.3101 54.2169 63.2375 53.9599 65.7059 52.7893C67.5465 51.9185 69.0874 51.4902 70.3573 51.4902H70.9994V67.2936L69.6153 67.3793C67.8033 67.4935 66.4621 67.8789 64.3647 68.9068C60.7691 70.6627 58.1866 70.6484 54.6338 68.8497C52.2653 67.6505 51.2523 67.4078 48.6697 67.4078C46.1157 67.4078 44.9315 67.6933 42.8055 68.7783C41.0506 69.6777 39.8235 70.0489 38.2397 70.1488C36.4277 70.263 35.1578 69.9632 32.7608 68.8354C30.0356 67.5506 29.4506 67.4078 26.6968 67.4078C24.4852 67.4221 24.3711 67.4364 23.0584 67.8789C22.3165 68.1359 21.2606 68.5927 20.7042 68.9068C19.3345 69.6491 17.9504 70.0489 16.4095 70.1488C14.626 70.263 13.299 69.9489 11.2159 68.9496C8.66189 67.7219 7.763 67.4649 5.55144 67.3793L3.65377 67.2936V59.4847C3.65377 55.1877 3.69658 51.633 3.76792 51.5759C3.93914 51.3903 6.65008 51.5901 7.50617 51.8471Z" fill="#3C4BBE"/>
<path d="M14.4976 57.6146C13.2705 58.0143 12.2289 58.8994 11.6297 60.0557C11.3443 60.5982 11.2872 60.9123 11.2872 61.983C11.2872 63.0965 11.3443 63.3677 11.6725 63.9816C12.7426 66.0088 14.9827 66.9367 17.1514 66.2515C18.2929 65.9088 19.6198 64.6097 19.9765 63.5105C20.319 62.4684 20.2476 60.9408 19.8053 60.0272C19.3773 59.1706 18.5212 58.3141 17.6793 57.9001C16.9659 57.5575 15.1682 57.3861 14.4976 57.6146ZM16.6948 60.5554C17.1942 60.8837 17.5367 61.6975 17.4368 62.2828C17.3226 62.8824 16.652 63.5533 16.067 63.6818C14.8971 63.9102 13.7841 62.711 14.0838 61.5547C14.2122 61.0693 14.84 60.4126 15.2823 60.2984C15.6961 60.1842 16.2953 60.2984 16.6948 60.5554Z" fill="#3C4BBE"/>
<path d="M58.1295 57.7002C56.774 58.2141 55.6326 59.4276 55.2901 60.6839C55.0476 61.569 55.2045 63.2964 55.5755 64.0244C55.9893 64.8382 56.8168 65.6376 57.6729 66.0659C58.6717 66.5513 60.655 66.5655 61.5539 66.0802C62.4956 65.5805 63.2518 64.8239 63.6798 63.9388C64.2077 62.8681 64.2363 61.2121 63.7654 60.1842C63.3516 59.2706 62.5241 58.3855 61.668 57.9572C60.7691 57.5003 58.9856 57.3719 58.1295 57.7002ZM60.2127 60.3983C61.7108 61.0265 61.6395 63.1108 60.0985 63.6247C59.0855 63.953 57.8727 63.0679 57.8727 61.9973C57.8727 61.3834 58.3578 60.6553 58.9142 60.4126C59.4992 60.1557 59.6277 60.1557 60.2127 60.3983Z" fill="#3C4BBE"/>
<path d="M37.2552 58.4711C36.1423 58.9279 36.1423 60.5268 37.2552 60.9979C37.8402 61.2406 38.2397 61.1693 38.7106 60.741C39.8235 59.7131 38.6535 57.9001 37.2552 58.4711Z" fill="#3C4BBE"/>
<path d="M48.3416 39.2843C47.4284 39.684 47.2715 40.9118 48.0562 41.5685C48.9694 42.3394 50.3106 41.6684 50.3106 40.4407C50.3106 39.9981 49.6542 39.27 49.1691 39.1701C48.9694 39.1273 48.5984 39.1844 48.3416 39.2843Z" fill="#3C4BBE"/>
</svg>
