<svg width="74" height="73" viewBox="0 0 74 73" fill="none" xmlns="http://www.w3.org/2000/svg">
<path d="M23.3034 0.171196C21.1454 0.485062 19.1733 1.49798 17.5869 3.08156C16.2864 4.37981 15.529 5.57819 14.9859 7.21884C14.643 8.23177 14.6001 8.57416 14.6001 10.3575C14.6001 12.1408 14.643 12.4832 14.9859 13.4961C15.7577 15.8215 15.7291 15.793 25.0755 25.1518C33.1071 33.2124 33.7074 33.8401 33.5645 34.1397C33.4787 34.3252 32.7356 35.7233 31.8924 37.2498C31.0635 38.7763 30.3775 40.1316 30.3775 40.26C30.3775 40.7308 30.9349 41.2444 31.4494 41.2444C32.0782 41.2444 32.2497 41.0162 33.9503 37.849L35.2937 35.3809L38.4949 38.5766L41.6961 41.7723L41.0387 44.1833C39.9669 48.0924 39.3952 49.2622 37.7089 50.9029C36.4227 52.1726 34.4505 53.1998 32.4497 53.6706C28.0052 54.6977 25.7043 55.9247 22.7746 58.778C21.0597 60.4614 21.0597 60.4614 22.1601 62.6299C22.5888 63.4859 22.9461 64.3134 22.9461 64.4846C22.9461 64.9839 22.546 65.6116 22.0887 65.8541C21.5599 66.1252 3.68164 70.9187 3.19574 70.9187C2.73842 70.9187 2.22394 70.3624 2.22394 69.863C2.22394 69.2924 2.75272 68.8644 3.81026 68.579L4.75348 68.3222L17.0153 56.0816C28.2196 44.8967 29.2771 43.7981 29.2771 43.3701C29.2771 42.828 28.8198 42.3858 28.2481 42.3858C27.948 42.3858 25.7186 44.54 15.8148 54.4267C5.368 64.8555 3.68164 66.4819 3.23862 66.5675C1.29502 66.9241 0.166016 68.1368 0.166016 69.8488C0.166016 71.1327 0.766244 72.1171 1.88095 72.6878C2.79559 73.1301 3.33865 73.1158 5.45374 72.5594C16.7581 69.5777 22.4174 68.0226 23.0462 67.6945C24.3038 67.0668 24.9469 65.9683 24.9469 64.456C24.9469 63.6714 24.8611 63.3718 24.2895 62.2019L23.6321 60.8609L24.7182 59.8194C26.8476 57.7936 28.9627 56.6808 32.2354 55.8819C35.5081 55.0687 37.6374 53.9987 39.3524 52.2439C40.9959 50.5747 41.9391 48.7771 42.7394 45.7812C43.0252 44.7397 43.2824 43.7981 43.3253 43.684C43.3682 43.5413 43.8112 43.8837 44.6687 44.7397C45.812 45.881 45.9692 46.095 46.2264 46.9368C46.6266 48.2493 47.0839 48.8485 48.0271 49.3193C50.085 50.3179 52.3716 49.0054 52.5002 46.7513C52.5431 45.9809 52.243 44.754 50.0279 36.5365C48.3701 30.3591 47.384 26.9922 47.1553 26.5785C46.4694 25.4229 45.0688 24.7381 43.654 24.8665C43.1824 24.9093 42.4964 25.1661 41.7247 25.5513C41.053 25.8937 40.4957 26.1362 40.4671 26.1077C40.4099 26.0649 43.5683 20.1871 43.7112 20.0444C43.7255 20.0302 46.5551 20.8719 49.9993 21.9133C53.6864 23.0547 56.759 23.9106 57.4736 24.0105L58.674 24.1817L54.8154 28.0479C50.6281 32.2423 50.5709 32.3136 51.3141 33.0412C51.6999 33.4264 51.9572 33.4835 52.4288 33.2409C52.6003 33.1553 54.8154 31.0296 57.3449 28.5045L61.9324 23.9392L62.99 23.6681C66.6771 22.7408 70.1069 19.9018 71.8219 16.3637C72.7508 14.4377 73.1367 12.7114 73.1653 10.4288C73.1796 8.2603 72.9938 6.97631 72.365 5.00754C71.9076 3.58089 70.7786 1.24118 70.1927 0.513588L69.8497 0.0855942L65.4766 0.0428009L61.1035 0L60.7462 0.356659C60.2889 0.813187 60.2889 1.35532 60.7462 1.79758L61.0892 2.15424H64.9478H68.7922L69.1637 2.81049C70.7929 5.72086 71.4932 9.72975 70.8787 12.6829C69.6639 18.575 64.0332 22.6837 58.1453 21.9989C57.1877 21.8848 55.0155 21.3569 54.844 21.2C54.8297 21.1857 55.1012 20.7292 55.4728 20.1871C58.6169 15.4934 59.0456 9.71548 56.6018 4.62234C56.2588 3.89475 55.8158 3.06729 55.6014 2.7677L55.2441 2.22557L56.4589 2.15424C57.3307 2.09718 57.7308 2.01157 57.9166 1.82611C58.231 1.51225 58.231 0.656258 57.9166 0.328125C57.6736 0.0998611 56.6018 0.0855942 40.9101 0.0713272C31.6923 0.0570602 23.775 0.0998611 23.3034 0.171196ZM53.1005 2.8961C55.187 5.50687 56.2302 8.73109 56.0587 12.0695C55.9587 14.0382 55.5728 15.5219 54.6725 17.3481C54.0151 18.7034 52.7146 20.5152 52.4431 20.4724C52.3716 20.4582 49.3562 19.5451 45.7262 18.4323C42.1106 17.3338 38.9665 16.4207 38.7664 16.4207C37.9947 16.4207 37.5231 17.4051 37.9947 18.0328C38.0948 18.1755 38.9236 18.5179 39.8526 18.8175C40.7815 19.1028 41.5532 19.4024 41.5532 19.4595C41.5675 19.6592 38.9379 24.41 38.8236 24.41C38.452 24.41 36.8085 21.8705 36.2369 20.4011C36.0082 19.8019 35.6224 18.5464 35.3937 17.6049C34.2504 12.9968 32.4069 10.3432 29.077 8.5171C28.0624 7.9607 26.2331 7.29018 25.7329 7.29018C25.2899 7.29018 24.804 7.80377 24.804 8.27457C24.804 8.85949 25.1898 9.21615 26.0902 9.50148C28.6197 10.3004 30.9349 12.1693 32.0496 14.3521C32.6927 15.6218 33.05 16.6918 33.5216 18.7034C34.0361 20.9289 34.8935 22.7979 36.3084 24.7666C37.0801 25.8366 39.824 28.5473 40.1527 28.5473C40.2813 28.5473 41.0959 28.1906 41.9534 27.7626C43.8255 26.821 44.4543 26.7497 45.0831 27.3774C45.5547 27.8482 45.3547 27.1349 48.2415 37.9346C49.5134 42.6568 50.5138 46.6514 50.4566 46.7941C50.2279 47.5217 49.2276 47.807 48.6845 47.322C48.5273 47.1793 48.2844 46.6086 48.1557 46.038L47.8985 45.0251L32.9356 30.0452C16.7866 13.867 17.5012 14.666 16.8581 12.4832C16.5151 11.3561 16.5151 9.35882 16.8581 8.2175C17.7156 5.3214 20.0593 3.06729 22.889 2.3825C23.5892 2.2113 26.1759 2.18277 38.1233 2.1685L52.5002 2.15424L53.1005 2.8961Z" fill="#3C4BBE"/>
</svg>
