<svg width="241" height="56" viewBox="0 0 241 56" fill="none" xmlns="http://www.w3.org/2000/svg">
<g clip-path="url(#clip0_39_4983)">
<path d="M69.1551 20.3567V34.604H66.1035V20.3567H69.1551Z" fill="#070500"/>
<path d="M74.8625 31.6632C75.3841 32.0903 76.0802 32.3039 76.9489 32.3039C77.6676 32.3039 78.2549 32.1519 78.7087 31.846C79.1626 31.54 79.3905 31.117 79.3905 30.5748C79.3905 30.1949 79.2652 29.8931 79.0147 29.6692C78.7642 29.4454 78.411 29.2688 77.9571 29.1394C77.5033 29.01 76.801 28.8519 75.8502 28.661C74.9138 28.4844 74.1273 28.2564 73.4887 27.9792C72.85 27.702 72.3325 27.2871 71.9321 26.7368C71.5317 26.1865 71.3325 25.4575 71.3325 24.5498C71.3325 23.7222 71.5604 22.983 72.0142 22.332C72.4681 21.681 73.1006 21.1676 73.9076 20.796C74.7146 20.4222 75.6264 20.2354 76.6449 20.2354C77.6902 20.2354 78.6286 20.4284 79.4644 20.8144C80.2981 21.2005 80.9573 21.7344 81.4378 22.4121C81.9204 23.0897 82.1669 23.8578 82.1812 24.712H79.1892C79.1215 24.1021 78.8627 23.6093 78.4151 23.2355C77.9674 22.8618 77.378 22.6749 76.6449 22.6749C75.9673 22.6749 75.4231 22.8166 75.0165 23.1021C74.6099 23.3875 74.4066 23.7941 74.4066 24.3239C74.4066 24.7038 74.5278 24.9995 74.7721 25.209C75.0165 25.4184 75.3615 25.5889 75.8092 25.7183C76.2568 25.8476 76.9489 25.9996 77.8853 26.1762C78.836 26.3528 79.6349 26.5725 80.2879 26.8374C80.9388 27.1023 81.4646 27.5028 81.865 28.0387C82.2654 28.5747 82.4646 29.2914 82.4646 30.1867C82.4646 31.0554 82.2264 31.8316 81.752 32.5175C81.2777 33.2033 80.6164 33.7414 79.7683 34.1356C78.9202 34.5299 77.9674 34.725 76.9078 34.725C75.7681 34.725 74.7536 34.5176 73.8645 34.1048C72.9753 33.6921 72.2812 33.1171 71.7781 32.386C71.277 31.6529 71.0183 30.8315 71.0039 29.9239L73.9959 29.9649C74.0513 30.6693 74.3409 31.2361 74.8625 31.6632Z" fill="#070500"/>
<path d="M86.9917 21.1307C88.0431 20.5331 89.2813 20.2354 90.7065 20.2354C91.8195 20.2354 92.8155 20.453 93.6985 20.8863C94.5815 21.3196 95.292 21.9316 95.8362 22.7181C96.3783 23.5046 96.7048 24.4143 96.8137 25.4451H93.7601C93.5835 24.6319 93.2138 23.9892 92.6512 23.521C92.0885 23.0528 91.3862 22.8187 90.5443 22.8187C89.4046 22.8187 88.5031 23.2458 87.8377 24.1001C87.1724 24.9543 86.8397 26.0817 86.8397 27.4781C86.8397 28.8622 87.1724 29.9855 87.8377 30.8459C88.5031 31.7084 89.4046 32.1376 90.5443 32.1376C91.3862 32.1376 92.0885 31.9035 92.6512 31.4353C93.2138 30.9671 93.5835 30.3264 93.7601 29.5111H96.8137C96.7048 30.542 96.3804 31.4517 95.8362 32.2382C95.2941 33.0247 94.5815 33.6366 93.6985 34.0699C92.8175 34.5053 91.8195 34.7209 90.7065 34.7209C89.2813 34.7209 88.0431 34.4231 86.9917 33.8256C85.9403 33.228 85.1332 32.384 84.5706 31.2915C84.0079 30.199 83.7266 28.9279 83.7266 27.4761C83.7266 26.0242 84.0079 24.7531 84.5706 23.6606C85.1332 22.5723 85.9403 21.7262 86.9917 21.1307Z" fill="#070500"/>
<path d="M108.595 33.7886C107.523 34.4128 106.301 34.725 104.931 34.725C103.562 34.725 102.34 34.4128 101.268 33.7886C100.196 33.1643 99.3621 32.2997 98.7645 31.1929C98.1669 30.0861 97.8691 28.8498 97.8691 27.4781C97.8691 26.1084 98.1669 24.8701 98.7645 23.7633C99.3621 22.6585 100.196 21.7919 101.268 21.1676C102.34 20.5433 103.562 20.2312 104.931 20.2312C106.301 20.2312 107.523 20.5433 108.595 21.1676C109.667 21.7919 110.5 22.6564 111.098 23.7633C111.696 24.8701 111.993 26.1063 111.993 27.4781C111.993 28.8478 111.696 30.0861 111.098 31.1929C110.502 32.2997 109.667 33.1643 108.595 33.7886ZM102.855 31.5399C103.453 31.9404 104.145 32.1396 104.931 32.1396C105.705 32.1396 106.389 31.9404 106.987 31.5399C107.584 31.1395 108.044 30.5871 108.371 29.8807C108.697 29.1743 108.86 28.3734 108.86 27.4781C108.86 26.5827 108.697 25.7819 108.371 25.0755C108.044 24.369 107.584 23.8167 106.987 23.4162C106.389 23.0158 105.705 22.8166 104.931 22.8166C104.145 22.8166 103.453 23.0158 102.855 23.4162C102.258 23.8167 101.798 24.369 101.471 25.0755C101.145 25.7819 100.982 26.5827 100.982 27.4781C100.982 28.3734 101.145 29.1743 101.471 29.8807C101.798 30.5871 102.26 31.1395 102.855 31.5399Z" fill="#070500"/>
<path d="M122.341 20.9378C123.122 21.3239 123.725 21.8783 124.152 22.5971C124.58 23.3158 124.793 24.1516 124.793 25.1003C124.793 26.0511 124.58 26.8807 124.152 27.5933C123.725 28.3059 123.122 28.8542 122.341 29.2423C121.561 29.6283 120.661 29.8214 119.645 29.8214H116.897V34.604H113.844V20.3567H119.645C120.663 20.3567 121.561 20.5497 122.341 20.9378ZM119.36 27.2771C120.078 27.2771 120.649 27.0799 121.07 26.6877C121.491 26.2934 121.701 25.7657 121.701 25.1003C121.701 24.4227 121.491 23.8867 121.07 23.4924C120.649 23.0981 120.08 22.9031 119.36 22.9031H116.897V27.2791H119.36V27.2771Z" fill="#070500"/>
<path d="M136.069 20.3566V22.983H129.555V26.1783H134.847V28.6815H129.555V31.9795H136.293V34.606H126.504V20.3566H136.069Z" fill="#070500"/>
<path d="M143.984 20.3567L147.79 33.1583L151.636 20.3567H152.755L156.501 33.1583L160.347 20.3567H161.487L157.152 34.604H155.829L152.145 22.1884L148.461 34.604H147.139L142.824 20.3567H143.984Z" fill="#070500"/>
<path d="M172.312 20.3567V21.3752H164.64V26.8294H171.071V27.8479H164.64V33.5875H172.577V34.6061H163.539V20.3567H172.312Z" fill="#070500"/>
<path d="M174.65 20.3567H175.749V33.5855H182.567V34.604H174.65V20.3567Z" fill="#070500"/>
<path d="M183.521 20.3567H184.62V33.5855H191.438V34.604H183.521V20.3567Z" fill="#070500"/>
<path d="M192.398 20.3567H193.435L201.861 32.5895V20.3567H202.939V34.604H201.902L193.477 22.3527V34.604H192.398V20.3567Z" fill="#070500"/>
<path d="M214.644 20.3567V21.3752H206.972V26.8294H213.403V27.8479H206.972V33.5875H214.909V34.6061H205.873V20.3567H214.644Z" fill="#070500"/>
<path d="M218.816 32.7619C219.575 33.3923 220.559 33.7085 221.767 33.7085C222.933 33.7085 223.867 33.4477 224.565 32.9241C225.264 32.4025 225.613 31.6858 225.613 30.7761C225.613 30.1251 225.426 29.6097 225.052 29.2298C224.678 28.8499 224.2 28.5686 223.617 28.3858C223.034 28.203 222.286 28.0367 221.378 27.8868C220.428 27.7246 219.635 27.5233 218.996 27.2872C218.358 27.049 217.83 26.6834 217.409 26.1885C216.988 25.6936 216.779 25.018 216.779 24.1638C216.779 23.3773 216.976 22.6852 217.368 22.0877C217.762 21.4901 218.321 21.0301 219.048 20.7036C219.775 20.3771 220.61 20.2148 221.561 20.2148C222.972 20.2148 224.122 20.5845 225.011 21.3237C225.9 22.063 226.399 23.0425 226.508 24.2644L225.43 24.2849C225.309 23.3485 224.9 22.6031 224.208 22.0466C223.516 21.4901 222.635 21.2129 221.563 21.2129C220.438 21.2129 219.543 21.4675 218.877 21.9768C218.212 22.486 217.879 23.1945 217.879 24.1042C217.879 24.7429 218.056 25.2439 218.409 25.6094C218.762 25.975 219.206 26.2399 219.742 26.4021C220.278 26.5643 221.013 26.7286 221.949 26.8908C222.898 27.0408 223.709 27.2399 224.381 27.4905C225.052 27.741 225.609 28.125 226.05 28.6404C226.492 29.1559 226.711 29.8418 226.711 30.696C226.711 31.4825 226.504 32.1807 226.091 32.7927C225.678 33.4046 225.097 33.879 224.352 34.2178C223.606 34.5566 222.738 34.7271 221.746 34.7271C220.715 34.7271 219.81 34.5402 219.029 34.1665C218.249 33.7927 217.639 33.265 217.197 32.5791C216.756 31.8932 216.516 31.1026 216.475 30.2073H217.573C217.643 31.2792 218.056 32.1314 218.816 32.7619Z" fill="#070500"/>
<path d="M230.638 32.7619C231.398 33.3923 232.381 33.7085 233.589 33.7085C234.755 33.7085 235.69 33.4477 236.388 32.9241C237.086 32.4025 237.435 31.6858 237.435 30.7761C237.435 30.1251 237.248 29.6097 236.875 29.2298C236.501 28.8499 236.022 28.5686 235.439 28.3858C234.856 28.203 234.108 28.0367 233.201 27.8868C232.25 27.7246 231.457 27.5233 230.819 27.2872C230.18 27.049 229.652 26.6834 229.231 26.1885C228.81 25.6936 228.601 25.018 228.601 24.1638C228.601 23.3773 228.798 22.6852 229.19 22.0877C229.585 21.4901 230.143 21.0301 230.87 20.7036C231.595 20.3771 232.433 20.2148 233.384 20.2148C234.794 20.2148 235.944 20.5845 236.833 21.3237C237.723 22.063 238.222 23.0425 238.328 24.2644L237.25 24.2849C237.129 23.3485 236.721 22.6031 236.028 22.0466C235.336 21.4901 234.455 21.2129 233.384 21.2129C232.258 21.2129 231.363 21.4675 230.698 21.9768C230.032 22.486 229.7 23.1945 229.7 24.1042C229.7 24.7429 229.876 25.2439 230.229 25.6094C230.583 25.975 231.026 26.2399 231.562 26.4021C232.098 26.5643 232.833 26.7286 233.77 26.8908C234.72 27.0408 235.529 27.2399 236.201 27.4905C236.872 27.741 237.429 28.125 237.87 28.6404C238.312 29.1559 238.532 29.8418 238.532 30.696C238.532 31.4825 238.324 32.1807 237.912 32.7927C237.499 33.4046 236.918 33.879 236.172 34.2178C235.427 34.5566 234.558 34.7271 233.566 34.7271C232.535 34.7271 231.63 34.5402 230.85 34.1665C230.069 33.7927 229.459 33.265 229.018 32.5791C228.576 31.8932 228.336 31.1026 228.295 30.2073H229.394C229.463 31.2792 229.878 32.1314 230.638 32.7619Z" fill="#070500"/>
<path d="M27.2288 0.411441C27.2042 0.230731 26.89 0.181447 26.7647 0.333407C22.6043 5.37275 24.551 8.36268 26.8428 10.9316C29.6294 14.053 29.0175 18.4332 28.8059 19.8521C28.7772 20.0452 29.0852 20.1478 29.2495 20.002C31.0073 18.4085 35.6051 13.7326 31.8452 9.30525C28.231 5.05035 27.9209 5.57605 27.2288 0.411441Z" fill="#3C4BBE"/>
<path d="M39.2974 2.44629C39.3549 2.27379 39.092 2.09308 38.9134 2.17522C32.9787 4.91051 33.4346 8.44873 34.3853 11.759C35.5415 15.7798 33.0916 19.4618 32.2846 20.6466C32.1758 20.8068 32.4078 21.0348 32.6193 20.9732C34.8946 20.3017 41.0655 18.0818 39.5992 12.4613C38.1864 7.06055 37.6792 7.39733 39.2974 2.44629Z" fill="#3C4BBE"/>
<path d="M49.2875 9.51638C49.4127 9.38496 49.2567 9.10979 49.0595 9.10568C42.5252 8.99479 41.4019 12.381 40.8228 15.7755C40.1185 19.899 36.3154 22.1538 35.073 22.8725C34.9046 22.969 35.0155 23.277 35.2311 23.3119C37.5721 23.6939 44.0941 24.3716 45.2112 18.671C46.2852 13.1901 45.6815 13.2743 49.2875 9.51638Z" fill="#3C4BBE"/>
<path d="M55.2215 20.2196C55.3919 20.156 55.3693 19.8397 55.1948 19.7494C49.3566 16.8149 46.8739 19.3777 44.8799 22.1848C42.4568 25.5957 38.052 25.9736 36.6207 26.0824C36.4276 26.0968 36.3948 26.4213 36.5734 26.5465C38.5181 27.906 44.0996 31.3477 47.5803 26.6964C50.9214 22.228 50.3423 22.0431 55.2215 20.2196Z" fill="#3C4BBE"/>
<path d="M55.9233 32.4376C56.104 32.4541 56.2231 32.1584 56.102 32.0023C52.1161 26.8254 48.7668 28.0575 45.7522 29.7208C42.0888 31.7415 37.955 30.1726 36.6202 29.649C36.4395 29.5791 36.2691 29.8564 36.3759 30.0473C37.5382 32.1173 41.0743 37.6372 46.2266 34.9573C51.1776 32.3801 50.7341 31.9612 55.9233 32.4376Z" fill="#3C4BBE"/>
<path d="M51.2533 43.7509C51.4094 43.8454 51.6435 43.6297 51.6024 43.4367C50.2574 37.042 46.7048 36.6991 43.2672 36.8901C39.0903 37.1221 36.047 33.9145 35.0695 32.8631C34.9381 32.7214 34.6629 32.898 34.6773 33.1157C34.8252 35.4834 35.6158 41.9931 41.4231 41.8144C47.0025 41.6399 46.7849 41.071 51.2533 43.7509Z" fill="#3C4BBE"/>
<path d="M42.1387 51.9156C42.2393 52.0676 42.5433 51.9752 42.5905 51.7842C44.1532 45.4388 41.1017 43.5886 37.9208 42.2682C34.056 40.6644 32.7069 36.4546 32.2818 35.0829C32.2243 34.8981 31.8999 34.9371 31.8177 35.1404C30.9244 37.3377 28.8134 43.5455 34.1218 45.9029C39.2248 48.172 39.2761 47.5642 42.1387 51.9156Z" fill="#3C4BBE"/>
<path d="M30.3822 55.3186C30.4068 55.4993 30.721 55.5486 30.8463 55.3967C35.0067 50.3573 33.06 47.3674 30.7682 44.7984C27.9816 41.6771 28.5936 37.2969 28.8051 35.8779C28.8338 35.6849 28.5258 35.5822 28.3615 35.728C26.6037 37.3216 22.0059 41.9974 25.7659 46.4248C29.3801 50.6818 29.6901 50.1561 30.3822 55.3186Z" fill="#3C4BBE"/>
<path d="M18.3165 53.2833C18.259 53.4558 18.5218 53.6365 18.7005 53.5543C24.6352 50.8191 24.1793 47.2808 23.2285 43.9706C22.0724 39.9498 24.5222 36.2678 25.3293 35.0829C25.4381 34.9227 25.2061 34.6948 24.9945 34.7564C22.7192 35.4279 16.5484 37.6478 18.0146 43.2683C19.4274 48.6711 19.9347 48.3322 18.3165 53.2833Z" fill="#3C4BBE"/>
<path d="M8.32132 46.2148C8.19606 46.3462 8.35212 46.6214 8.54926 46.6255C15.0836 46.7364 16.2068 43.3501 16.7859 39.9556C17.4903 35.8322 21.2934 33.5774 22.5358 32.8587C22.7042 32.7622 22.5933 32.4541 22.3777 32.4192C20.0367 32.0373 13.5147 31.3596 12.3976 37.0602C11.3236 42.539 11.9273 42.4548 8.32132 46.2148Z" fill="#3C4BBE"/>
<path d="M2.38914 35.5101C2.2187 35.5737 2.24129 35.89 2.41584 35.9803C8.254 38.9148 10.7367 36.352 12.7307 33.5448C15.1538 30.1339 19.5586 29.7561 20.9899 29.6473C21.183 29.6329 21.2158 29.3084 21.0372 29.1832C19.0925 27.8237 13.511 24.382 10.0303 29.0333C6.68922 33.5038 7.26831 33.6886 2.38914 35.5101Z" fill="#3C4BBE"/>
<path d="M1.6878 23.2935C1.50709 23.2771 1.38799 23.5728 1.50915 23.7289C5.49503 28.9058 8.84433 27.6737 11.8589 26.0103C15.5224 23.9897 19.6561 25.5586 20.9909 26.0822C21.1716 26.152 21.3421 25.8748 21.2353 25.6838C20.073 23.6139 16.5368 18.094 11.3845 20.7739C6.43349 23.349 6.87705 23.7679 1.6878 23.2935Z" fill="#3C4BBE"/>
<path d="M6.36069 11.9809C6.20462 11.8865 5.97052 12.1021 6.01159 12.2951C7.35665 18.6898 10.9092 19.0327 14.3468 18.8418C18.5237 18.6097 21.567 21.8173 22.5445 22.8687C22.6759 23.0104 22.9511 22.8338 22.9367 22.6161C22.7889 20.2484 21.9983 13.7388 16.1909 13.9174C10.6115 14.0899 10.8292 14.6587 6.36069 11.9809Z" fill="#3C4BBE"/>
<path d="M15.4743 3.81405C15.3737 3.66209 15.0698 3.75449 15.0225 3.94547C13.4598 10.2909 16.5113 12.1411 19.6923 13.4615C23.557 15.0653 24.9061 19.275 25.3312 20.6468C25.3887 20.8316 25.7132 20.7926 25.7953 20.5893C26.6886 18.392 28.7996 12.1842 23.4913 9.82676C18.3883 7.55967 18.3369 8.16751 15.4743 3.81405Z" fill="#3C4BBE"/>
<path d="M27.2288 0.411441C27.2042 0.230731 26.89 0.181447 26.7647 0.333407C22.6043 5.37275 24.551 8.36268 26.8428 10.9316C29.6294 14.053 29.0175 18.4332 28.8059 19.8521C28.7772 20.0452 29.0852 20.1478 29.2495 20.002C31.0073 18.4085 35.6051 13.7326 31.8452 9.30525C28.231 5.05035 27.9209 5.57605 27.2288 0.411441Z" fill="#3C4BBE"/>
<path d="M28.8166 33.2674C31.6542 33.2674 33.9545 30.9671 33.9545 28.1295C33.9545 25.2919 31.6542 22.9916 28.8166 22.9916C25.979 22.9916 23.6787 25.2919 23.6787 28.1295C23.6787 30.9671 25.979 33.2674 28.8166 33.2674Z" fill="#FAC30A"/>
</g>
<defs>
<clipPath id="clip0_39_4983">
<rect width="240.001" height="55.7285" fill="white"/>
</clipPath>
</defs>
</svg>
