<svg width="56" height="56" viewBox="0 0 56 56" fill="none" xmlns="http://www.w3.org/2000/svg">
<path d="M26.1019 0.168277C26.0772 -0.0124328 25.763 -0.0617173 25.6378 0.0902433C21.4773 5.12959 23.4241 8.11951 25.7158 10.6885C28.5024 13.8098 27.8905 18.19 27.679 19.609C27.6502 19.802 27.9583 19.9047 28.1225 19.7589C29.8804 18.1653 34.4782 13.4895 30.7182 9.06208C27.104 4.80718 26.7939 5.33288 26.1019 0.168277Z" fill="#3C4BBE"/>
<path d="M38.1704 2.20312C38.2279 2.03063 37.9651 1.84992 37.7864 1.93206C31.8517 4.66735 32.3076 8.20556 33.2584 11.5158C34.4145 15.5366 31.9647 19.2186 31.1576 20.4035C31.0488 20.5637 31.2809 20.7916 31.4924 20.73C33.7677 20.0585 39.9385 17.8386 38.4723 12.2181C37.0595 6.81738 36.5522 7.15416 38.1704 2.20312Z" fill="#3C4BBE"/>
<path d="M48.1605 9.27322C48.2858 9.14179 48.1297 8.86662 47.9326 8.86251C41.3983 8.75162 40.275 12.1379 39.6959 15.5324C38.9915 19.6558 35.1884 21.9106 33.946 22.6293C33.7776 22.7258 33.8885 23.0339 34.1041 23.0688C36.4452 23.4507 42.9671 24.1284 44.0843 18.4278C45.1583 12.947 44.5545 13.0312 48.1605 9.27322Z" fill="#3C4BBE"/>
<path d="M54.0945 19.9765C54.265 19.9128 54.2424 19.5966 54.0678 19.5062C48.2297 16.5717 45.7469 19.1345 43.753 21.9417C41.3298 25.3526 36.925 25.7304 35.4937 25.8393C35.3007 25.8536 35.2678 26.1781 35.4465 26.3034C37.3912 27.6628 42.9726 31.1045 46.4534 26.4533C49.7944 21.9848 49.2153 21.8 54.0945 19.9765Z" fill="#3C4BBE"/>
<path d="M54.7964 32.1945C54.9771 32.2109 55.0962 31.9152 54.975 31.7591C50.9892 26.5822 47.6399 27.8143 44.6253 29.4777C40.9618 31.4983 36.8281 29.9294 35.4933 29.4058C35.3126 29.336 35.1421 29.6132 35.2489 29.8042C36.4112 31.8741 39.9474 37.394 45.0997 34.7141C50.0507 32.137 49.6071 31.7181 54.7964 32.1945Z" fill="#3C4BBE"/>
<path d="M50.1264 43.5077C50.2824 43.6022 50.5165 43.3866 50.4755 43.1935C49.1304 36.7989 45.5778 36.4559 42.1402 36.6469C37.9634 36.879 34.92 33.6714 33.9426 32.62C33.8111 32.4783 33.536 32.6549 33.5503 32.8725C33.6982 35.2402 34.4888 41.7499 40.2962 41.5713C45.8756 41.3967 45.6579 40.8279 50.1264 43.5077Z" fill="#3C4BBE"/>
<path d="M41.0118 51.6725C41.1124 51.8244 41.4163 51.732 41.4635 51.541C43.0263 45.1956 39.9747 43.3454 36.7938 42.025C32.9291 40.4212 31.5799 36.2115 31.1549 34.8397C31.0974 34.6549 30.7729 34.6939 30.6908 34.8972C29.7975 37.0945 27.6865 43.3023 32.9948 45.6597C38.0978 47.9289 38.1491 47.321 41.0118 51.6725Z" fill="#3C4BBE"/>
<path d="M29.2552 55.0755C29.2799 55.2562 29.5941 55.3055 29.7193 55.1535C33.8798 50.1142 31.933 47.1242 29.6413 44.5553C26.8547 41.4339 27.4666 37.0538 27.6781 35.6348C27.7069 35.4417 27.3988 35.3391 27.2346 35.4849C25.4767 37.0784 20.8789 41.7543 24.6389 46.1817C28.2531 50.4386 28.5632 49.9129 29.2552 55.0755Z" fill="#3C4BBE"/>
<path d="M17.1895 53.0401C17.132 53.2126 17.3949 53.3933 17.5735 53.3112C23.5082 50.5759 23.0523 47.0377 22.1016 43.7274C20.9454 39.7066 23.3953 36.0246 24.2023 34.8397C24.3111 34.6796 24.0791 34.4516 23.8676 34.5132C21.5923 35.1847 15.4214 37.4046 16.8877 43.0251C18.3005 48.4279 18.8077 48.0891 17.1895 53.0401Z" fill="#3C4BBE"/>
<path d="M7.19437 45.9716C7.0691 46.103 7.22517 46.3782 7.42231 46.3823C13.9566 46.4932 15.0799 43.1069 15.659 39.7125C16.3633 35.589 20.1665 33.3342 21.4088 32.6155C21.5772 32.519 21.4663 32.211 21.2507 32.176C18.9097 31.7941 12.3877 31.1164 11.2706 36.817C10.1966 42.2958 10.8004 42.2116 7.19437 45.9716Z" fill="#3C4BBE"/>
<path d="M1.26219 35.2669C1.09175 35.3306 1.11434 35.6468 1.28889 35.7372C7.12705 38.6716 9.60976 36.1088 11.6037 33.3017C14.0269 29.8908 18.4317 29.5129 19.863 29.4041C20.056 29.3897 20.0889 29.0653 19.9102 28.94C17.9655 27.5806 12.3841 24.1389 8.90335 28.7901C5.56226 33.2606 6.14136 33.4454 1.26219 35.2669Z" fill="#3C4BBE"/>
<path d="M0.560851 23.0504C0.380141 23.0339 0.261036 23.3296 0.382194 23.4857C4.36808 28.6626 7.71737 27.4305 10.7319 25.7672C14.3954 23.7465 18.5292 25.3154 19.864 25.8391C20.0447 25.9089 20.2151 25.6316 20.1083 25.4407C18.946 23.3707 15.4099 17.8509 10.2576 20.5307C5.30654 23.1058 5.7501 23.5247 0.560851 23.0504Z" fill="#3C4BBE"/>
<path d="M5.23374 11.7378C5.07767 11.6433 4.84357 11.8589 4.88464 12.052C6.2297 18.4466 9.78229 18.7896 13.2199 18.5986C17.3967 18.3665 20.4401 21.5741 21.4175 22.6255C21.549 22.7672 21.8241 22.5906 21.8098 22.373C21.6619 20.0053 20.8713 13.4956 15.0639 13.6742C9.48453 13.8467 9.7022 14.4156 5.23374 11.7378Z" fill="#3C4BBE"/>
<path d="M14.3474 3.57088C14.2467 3.41892 13.9428 3.51133 13.8956 3.70231C12.3329 10.0477 15.3844 11.8979 18.5653 13.2183C22.43 14.8221 23.7792 19.0318 24.2043 20.4036C24.2618 20.5884 24.5862 20.5494 24.6684 20.3461C25.5616 18.1488 27.6727 11.941 22.3643 9.5836C17.2613 7.31651 17.21 7.92435 14.3474 3.57088Z" fill="#3C4BBE"/>
<path d="M26.1019 0.168277C26.0772 -0.0124328 25.763 -0.0617173 25.6378 0.0902433C21.4773 5.12959 23.4241 8.11951 25.7158 10.6885C28.5024 13.8098 27.8905 18.19 27.679 19.609C27.6502 19.802 27.9583 19.9047 28.1225 19.7589C29.8804 18.1653 34.4782 13.4895 30.7182 9.06208C27.104 4.80718 26.7939 5.33288 26.1019 0.168277Z" fill="#3C4BBE"/>
<path d="M27.6897 33.0243C30.5273 33.0243 32.8276 30.7239 32.8276 27.8864C32.8276 25.0488 30.5273 22.7484 27.6897 22.7484C24.8521 22.7484 22.5518 25.0488 22.5518 27.8864C22.5518 30.7239 24.8521 33.0243 27.6897 33.0243Z" fill="#FAC30A"/>
</svg>
