<svg width="16" height="16" viewBox="0 0 16 16" fill="none" xmlns="http://www.w3.org/2000/svg">
<path d="M13.6562 1.875H9.71875C9.66719 1.875 9.625 1.91719 9.625 1.96875V2.84375C9.625 2.89531 9.66719 2.9375 9.71875 2.9375H12.225L9.11094 6.05156C8.32969 5.45 7.37656 5.125 6.375 5.125C5.17344 5.125 4.04219 5.59375 3.19375 6.44375C2.34531 7.29375 1.875 8.42344 1.875 9.625C1.875 10.8266 2.34375 11.9578 3.19375 12.8062C4.04219 13.6562 5.17344 14.125 6.375 14.125C7.57656 14.125 8.70781 13.6562 9.55625 12.8062C10.4062 11.9578 10.875 10.8266 10.875 9.625C10.875 8.62344 10.55 7.67344 9.95 6.89219L13.0625 3.77969V6.28125C13.0625 6.33281 13.1047 6.375 13.1562 6.375H14.0312C14.0828 6.375 14.125 6.33281 14.125 6.28125V2.34375C14.125 2.08594 13.9141 1.875 13.6562 1.875ZM6.375 12.9375C4.54844 12.9375 3.0625 11.4516 3.0625 9.625C3.0625 7.79844 4.54844 6.3125 6.375 6.3125C8.20156 6.3125 9.6875 7.79844 9.6875 9.625C9.6875 11.4516 8.20156 12.9375 6.375 12.9375Z" fill="#FAC30A"/>
</svg>
