<svg width="28" height="28" viewBox="0 0 39 39" fill="none" xmlns="http://www.w3.org/2000/svg">
<path d="M33.2871 4.57031H23.6895C23.5638 4.57031 23.4609 4.67314 23.4609 4.79883V6.93164C23.4609 7.05732 23.5638 7.16016 23.6895 7.16016H29.7984L22.2079 14.7507C20.3036 13.2844 17.9804 12.4922 15.5391 12.4922C12.6103 12.4922 9.85283 13.6348 7.78477 15.7066C5.7167 17.7785 4.57031 20.5321 4.57031 23.4609C4.57031 26.3897 5.71289 29.1472 7.78477 31.2152C9.85283 33.2871 12.6103 34.4297 15.5391 34.4297C18.4679 34.4297 21.2253 33.2871 23.2934 31.2152C25.3652 29.1472 26.5078 26.3897 26.5078 23.4609C26.5078 21.0196 25.7156 18.704 24.2531 16.7997L31.8398 9.21299V15.3105C31.8398 15.4362 31.9427 15.5391 32.0684 15.5391H34.2012C34.3269 15.5391 34.4297 15.4362 34.4297 15.3105V5.71289C34.4297 5.08447 33.9155 4.57031 33.2871 4.57031ZM15.5391 31.5352C11.0868 31.5352 7.46484 27.9132 7.46484 23.4609C7.46484 19.0087 11.0868 15.3867 15.5391 15.3867C19.9913 15.3867 23.6133 19.0087 23.6133 23.4609C23.6133 27.9132 19.9913 31.5352 15.5391 31.5352Z" fill="#0085FF"/>
</svg>
