<svg width="48" height="48" viewBox="0 0 48 48" fill="none" xmlns="http://www.w3.org/2000/svg">
<path d="M44 24C44 35.04 35.04 44 24 44C12.96 44 4 35.04 4 24C4 12.96 12.96 4 24 4C35.04 4 44 12.96 44 24ZM24 18.42V22H18C16.9 22 16 22.9 16 24C16 25.1 16.9 26 18 26H24V29.58C24 30.48 25.08 30.92 25.7 30.28L31.28 24.7C31.68 24.3 31.68 23.68 31.28 23.28L25.7 17.7C25.559 17.5618 25.3803 17.4684 25.1863 17.4316C24.9923 17.3949 24.7918 17.4163 24.61 17.4933C24.4282 17.5703 24.2733 17.6994 24.1647 17.8643C24.0561 18.0292 23.9988 18.2226 24 18.42Z" fill="white"/>
</svg>
