<svg width="16" height="16" viewBox="0 0 16 16" fill="none" xmlns="http://www.w3.org/2000/svg">
<g clip-path="url(#clip0_154_631)">
<path d="M8 0.5C8.6875 0.5 9.34896 0.588542 9.98438 0.765625C10.6198 0.942708 11.2188 1.19531 11.7812 1.52344C12.3438 1.85156 12.849 2.24219 13.2969 2.69531C13.7448 3.14844 14.1354 3.65625 14.4688 4.21875C14.8021 4.78125 15.0547 5.3776 15.2266 6.00781C15.3984 6.63802 15.4896 7.30208 15.5 8C15.5 8.6875 15.4115 9.34896 15.2344 9.98438C15.0573 10.6198 14.8047 11.2188 14.4766 11.7812C14.1484 12.3438 13.7578 12.849 13.3047 13.2969C12.8516 13.7448 12.3438 14.1354 11.7812 14.4688C11.2188 14.8021 10.6224 15.0547 9.99219 15.2266C9.36198 15.3984 8.69792 15.4896 8 15.5C7.3125 15.5 6.65104 15.4115 6.01562 15.2344C5.38021 15.0573 4.78125 14.8047 4.21875 14.4766C3.65625 14.1484 3.15104 13.7578 2.70312 13.3047C2.25521 12.8516 1.86458 12.3438 1.53125 11.7812C1.19792 11.2188 0.945312 10.6224 0.773438 9.99219C0.601562 9.36198 0.510417 8.69792 0.5 8C0.5 7.3125 0.588542 6.65104 0.765625 6.01562C0.942708 5.38021 1.19531 4.78125 1.52344 4.21875C1.85156 3.65625 2.24219 3.15104 2.69531 2.70312C3.14844 2.25521 3.65625 1.86458 4.21875 1.53125C4.78125 1.19792 5.3776 0.945312 6.00781 0.773438C6.63802 0.601562 7.30208 0.510417 8 0.5ZM8 14.5C8.59896 14.5 9.17448 14.4219 9.72656 14.2656C10.2786 14.1094 10.7943 13.8906 11.2734 13.6094C11.7526 13.3281 12.1927 12.9896 12.5938 12.5938C12.9948 12.1979 13.3333 11.7604 13.6094 11.2812C13.8854 10.8021 14.1042 10.2839 14.2656 9.72656C14.4271 9.16927 14.5052 8.59375 14.5 8C14.5 7.40104 14.4219 6.82552 14.2656 6.27344C14.1094 5.72135 13.8906 5.20573 13.6094 4.72656C13.3281 4.2474 12.9896 3.80729 12.5938 3.40625C12.1979 3.00521 11.7604 2.66667 11.2812 2.39062C10.8021 2.11458 10.2839 1.89583 9.72656 1.73438C9.16927 1.57292 8.59375 1.49479 8 1.5C7.40104 1.5 6.82552 1.57812 6.27344 1.73438C5.72135 1.89062 5.20573 2.10938 4.72656 2.39062C4.2474 2.67188 3.80729 3.01042 3.40625 3.40625C3.00521 3.80208 2.66667 4.23958 2.39062 4.71875C2.11458 5.19792 1.89583 5.71615 1.73438 6.27344C1.57292 6.83073 1.49479 7.40625 1.5 8C1.5 8.59896 1.57812 9.17448 1.73438 9.72656C1.89062 10.2786 2.10938 10.7943 2.39062 11.2734C2.67188 11.7526 3.01042 12.1927 3.40625 12.5938C3.80208 12.9948 4.23958 13.3333 4.71875 13.6094C5.19792 13.8854 5.71615 14.1042 6.27344 14.2656C6.83073 14.4271 7.40625 14.5052 8 14.5ZM9.34375 7.34375C9.44792 7.55208 9.5 7.77083 9.5 8C9.5 8.20833 9.46094 8.40365 9.38281 8.58594C9.30469 8.76823 9.19792 8.92708 9.0625 9.0625C8.92708 9.19792 8.76823 9.30469 8.58594 9.38281C8.40365 9.46094 8.20833 9.5 8 9.5C7.79167 9.5 7.59635 9.46094 7.41406 9.38281C7.23177 9.30469 7.07292 9.19792 6.9375 9.0625C6.80208 8.92708 6.69531 8.76823 6.61719 8.58594C6.53906 8.40365 6.5 8.20833 6.5 8C6.5 7.79167 6.53906 7.59635 6.61719 7.41406C6.69531 7.23177 6.80208 7.07292 6.9375 6.9375C7.07292 6.80208 7.23177 6.69531 7.41406 6.61719C7.59635 6.53906 7.79167 6.5 8 6.5C8.22917 6.5 8.44792 6.55208 8.65625 6.65625L8.64844 6.64844L11.5234 3.77344L12.2266 4.47656L9.35156 7.35156L9.34375 7.34375ZM8 8.5C8.13542 8.5 8.2526 8.45052 8.35156 8.35156C8.45052 8.2526 8.5 8.13542 8.5 8C8.5 7.86458 8.45052 7.7474 8.35156 7.64844C8.2526 7.54948 8.13542 7.5 8 7.5C7.86458 7.5 7.7474 7.54948 7.64844 7.64844C7.54948 7.7474 7.5 7.86458 7.5 8C7.5 8.13542 7.54948 8.2526 7.64844 8.35156C7.7474 8.45052 7.86458 8.5 8 8.5ZM13 5.75C13.1615 6.10417 13.2812 6.46875 13.3594 6.84375C13.4375 7.21875 13.4792 7.60417 13.4844 8C13.4844 8.72917 13.349 9.42969 13.0781 10.1016C12.8073 10.7734 12.4115 11.3698 11.8906 11.8906L11.1797 11.1797C11.6016 10.7578 11.9271 10.276 12.1562 9.73438C12.3854 9.19271 12.5 8.6224 12.5 8.02344C12.5 7.3776 12.3646 6.75521 12.0938 6.15625L13 5.75ZM9.84375 3.90625C9.24479 3.63542 8.6224 3.5 7.97656 3.5C7.5651 3.5 7.16927 3.55208 6.78906 3.65625C6.40885 3.76042 6.05208 3.91406 5.71875 4.11719C5.38542 4.32031 5.08333 4.55469 4.8125 4.82031C4.54167 5.08594 4.3099 5.39062 4.11719 5.73438C3.92448 6.07812 3.77344 6.4349 3.66406 6.80469C3.55469 7.17448 3.5 7.57292 3.5 8C3.5 8.59896 3.61458 9.17188 3.84375 9.71875C4.07292 10.2656 4.39844 10.7526 4.82031 11.1797L4.10938 11.8906C3.58854 11.3698 3.1901 10.776 2.91406 10.1094C2.63802 9.44271 2.5 8.73958 2.5 8C2.5 7.49479 2.5651 7.00781 2.69531 6.53906C2.82552 6.07031 3.01042 5.63281 3.25 5.22656C3.48958 4.82031 3.77604 4.45052 4.10938 4.11719C4.44271 3.78385 4.8125 3.5 5.21875 3.26562C5.625 3.03125 6.0625 2.84635 6.53125 2.71094C7 2.57552 7.48958 2.51042 8 2.51562C8.39062 2.51562 8.77344 2.55469 9.14844 2.63281C9.52344 2.71094 9.89062 2.83333 10.25 3L9.84375 3.90625Z" fill="#EFF4FA"/>
</g>
<defs>
<clipPath id="clip0_154_631">
<rect width="16" height="16" fill="white"/>
</clipPath>
</defs>
</svg>
