<svg width="48" height="48" viewBox="0 0 48 48" fill="none" xmlns="http://www.w3.org/2000/svg">
<path d="M4 24C4 35.04 12.96 44 24 44C35.04 44 44 35.04 44 24C44 12.96 35.04 4 24 4C12.96 4 4 12.96 4 24ZM24 18.42V22H30C31.1 22 32 22.9 32 24C32 25.1 31.1 26 30 26H24V29.58C24 30.48 22.92 30.92 22.3 30.28L16.72 24.7C16.32 24.3 16.32 23.68 16.72 23.28L22.3 17.7C22.441 17.5618 22.6197 17.4684 22.8137 17.4316C23.0077 17.3949 23.2082 17.4163 23.39 17.4933C23.5718 17.5703 23.7267 17.6994 23.8353 17.8643C23.9439 18.0292 24.0012 18.2226 24 18.42Z" fill="white"/>
</svg>
