<svg width="28" height="28" viewBox="0 0 28 28" fill="none" xmlns="http://www.w3.org/2000/svg">
<path d="M16.6253 9.40649C17.2743 9.40649 17.9087 9.21405 18.4483 8.8535C18.9879 8.49295 19.4085 7.98049 19.6568 7.38092C19.9052 6.78135 19.9701 6.1216 19.8435 5.4851C19.7169 4.8486 19.4044 4.26394 18.9455 3.80505C18.4866 3.34616 17.902 3.03365 17.2655 2.90704C16.629 2.78044 15.9692 2.84542 15.3697 3.09377C14.7701 3.34212 14.2576 3.76268 13.8971 4.30228C13.5365 4.84188 13.3441 5.47627 13.3441 6.12524C13.3441 6.99548 13.6898 7.83008 14.3051 8.44543C14.9205 9.06079 15.7551 9.40649 16.6253 9.40649ZM16.6253 4.15649C17.0147 4.15649 17.3954 4.27196 17.7191 4.48829C18.0429 4.70462 18.2952 5.01209 18.4442 5.37183C18.5932 5.73158 18.6322 6.12743 18.5563 6.50933C18.4803 6.89122 18.2928 7.24202 18.0174 7.51736C17.7421 7.79269 17.3913 7.9802 17.0094 8.05616C16.6275 8.13212 16.2317 8.09314 15.8719 7.94413C15.5122 7.79512 15.2047 7.54278 14.9884 7.21902C14.772 6.89526 14.6566 6.51462 14.6566 6.12524C14.6566 5.6031 14.864 5.10234 15.2332 4.73313C15.6024 4.36391 16.1032 4.15649 16.6253 4.15649ZM23.8977 15.188C23.8331 15.2176 23.1135 15.5304 21.8327 15.5304C20.3167 15.5304 18.0155 15.0929 15.081 13.2335C14.6108 14.6374 13.9706 15.9785 13.1746 17.2268C14.206 17.5309 15.5808 18.0712 16.8047 19.0052C18.8631 20.5682 19.9066 22.7119 19.9066 25.3752C19.9066 25.5493 19.8374 25.7162 19.7144 25.8393C19.5913 25.9623 19.4244 26.0315 19.2503 26.0315C19.0763 26.0315 18.9094 25.9623 18.7863 25.8393C18.6632 25.7162 18.5941 25.5493 18.5941 25.3752C18.5941 20.5627 14.5221 18.9024 12.3696 18.3632C12.2821 18.4762 12.1924 18.5889 12.1005 18.7012C9.99502 21.2507 7.36018 22.5785 4.43222 22.5785C4.09914 22.5796 3.76622 22.5639 3.43472 22.5315C3.34854 22.5229 3.2649 22.4973 3.18858 22.4564C3.11226 22.4155 3.04475 22.3599 2.9899 22.2929C2.93506 22.2258 2.89395 22.1486 2.86893 22.0657C2.84392 21.9828 2.83548 21.8958 2.84409 21.8096C2.85271 21.7234 2.87822 21.6398 2.91916 21.5635C2.9601 21.4871 3.01568 21.4196 3.08271 21.3648C3.21809 21.254 3.39192 21.2016 3.56597 21.219C6.47862 21.5099 9.00956 20.3812 11.0877 17.8623C12.5271 16.1188 13.4874 13.9784 13.9402 12.4865C9.5094 9.80461 6.6569 11.9637 6.53331 12.061C6.39687 12.1651 6.22508 12.2117 6.05474 12.1906C5.8844 12.1696 5.72909 12.0827 5.62208 11.9485C5.51507 11.8143 5.46489 11.6435 5.4823 11.4728C5.4997 11.302 5.5833 11.1449 5.71518 11.0351C5.75565 11.0023 6.74222 10.2224 8.42331 9.94133C9.93924 9.68867 12.3521 9.79914 15.2439 11.7646C20.3999 15.2646 23.3245 14.0035 23.353 13.9904C23.4314 13.9545 23.5161 13.9344 23.6023 13.9312C23.6885 13.928 23.7745 13.9419 23.8553 13.9719C23.9362 14.002 24.0103 14.0477 24.0735 14.1064C24.1367 14.1651 24.1877 14.2357 24.2236 14.3141C24.2595 14.3926 24.2796 14.4773 24.2828 14.5635C24.286 14.6497 24.2721 14.7357 24.242 14.8165C24.212 14.8973 24.1663 14.9715 24.1076 15.0347C24.0489 15.0978 23.9783 15.1489 23.8999 15.1848L23.8977 15.188Z" fill="white"/>
</svg>
