<svg width="74" height="73" viewBox="0 0 74 73" fill="none" xmlns="http://www.w3.org/2000/svg">
<g clip-path="url(#clip0_154_615)">
<path d="M34.3848 0C37.5215 0 40.5394 0.403971 43.4385 1.21191C46.3376 2.01986 49.0703 3.17236 51.6367 4.66943C54.2031 6.1665 56.5081 7.94873 58.5518 10.0161C60.5954 12.0835 62.3776 14.4004 63.8984 16.9668C65.4193 19.5332 66.5718 22.2541 67.356 25.1294C68.1401 28.0047 68.556 31.0345 68.6035 34.2188C68.6035 37.3555 68.1995 40.3734 67.3916 43.2725C66.5837 46.1716 65.4312 48.9043 63.9341 51.4707C62.437 54.0371 60.6548 56.3421 58.5874 58.3857C56.52 60.4294 54.2031 62.2116 51.6367 63.7324C49.0703 65.2533 46.3494 66.4058 43.4741 67.1899C40.5988 67.9741 37.569 68.39 34.3848 68.4375C31.248 68.4375 28.2301 68.0335 25.3311 67.2256C22.432 66.4176 19.6992 65.2651 17.1328 63.7681C14.5664 62.271 12.2614 60.4888 10.2178 58.4214C8.17415 56.354 6.39193 54.0371 4.87109 51.4707C3.35026 48.9043 2.19775 46.1834 1.41357 43.3081C0.629395 40.4328 0.213542 37.403 0.166016 34.2188C0.166016 31.082 0.569987 28.0641 1.37793 25.165C2.18587 22.266 3.33838 19.5332 4.83545 16.9668C6.33252 14.4004 8.11475 12.0954 10.1821 10.0518C12.2495 8.00814 14.5664 6.22591 17.1328 4.70508C19.6992 3.18424 22.4201 2.03174 25.2954 1.24756C28.1707 0.463379 31.2005 0.047526 34.3848 0ZM34.3848 63.875C37.1175 63.875 39.7433 63.5186 42.2622 62.8057C44.7811 62.0928 47.1336 61.0947 49.3198 59.8115C51.506 58.5283 53.514 56.9837 55.3438 55.1777C57.1735 53.3717 58.7181 51.3757 59.9775 49.1895C61.237 47.0033 62.235 44.6388 62.9717 42.0962C63.7083 39.5535 64.0648 36.9277 64.041 34.2188C64.041 31.486 63.6846 28.8602 62.9717 26.3413C62.2588 23.8224 61.2607 21.4699 59.9775 19.2837C58.6943 17.0975 57.1497 15.0895 55.3438 13.2598C53.5378 11.43 51.5417 9.88542 49.3555 8.62598C47.1693 7.36654 44.8049 6.36849 42.2622 5.63184C39.7196 4.89518 37.0938 4.53874 34.3848 4.5625C31.652 4.5625 29.0262 4.91895 26.5073 5.63184C23.9884 6.34473 21.6359 7.34277 19.4497 8.62598C17.2635 9.90918 15.2555 11.4538 13.4258 13.2598C11.596 15.0658 10.0514 17.0618 8.79199 19.248C7.53255 21.4342 6.53451 23.7987 5.79785 26.3413C5.0612 28.884 4.70475 31.5098 4.72852 34.2188C4.72852 36.9515 5.08496 39.5773 5.79785 42.0962C6.51074 44.6151 7.50879 46.9676 8.79199 49.1538C10.0752 51.34 11.6198 53.348 13.4258 55.1777C15.2318 57.0075 17.2279 58.5521 19.4141 59.8115C21.6003 61.071 23.9647 62.069 26.5073 62.8057C29.05 63.5423 31.6758 63.8988 34.3848 63.875ZM40.5156 31.2246C40.9909 32.1751 41.2285 33.1732 41.2285 34.2188C41.2285 35.1693 41.0503 36.0604 40.6938 36.8921C40.3374 37.7238 39.8503 38.4486 39.2324 39.0664C38.6146 39.6842 37.8898 40.1714 37.0581 40.5278C36.2264 40.8843 35.3353 41.0625 34.3848 41.0625C33.4342 41.0625 32.5431 40.8843 31.7114 40.5278C30.8797 40.1714 30.1549 39.6842 29.5371 39.0664C28.9193 38.4486 28.4321 37.7238 28.0757 36.8921C27.7192 36.0604 27.541 35.1693 27.541 34.2188C27.541 33.2682 27.7192 32.3771 28.0757 31.5454C28.4321 30.7137 28.9193 29.9889 29.5371 29.3711C30.1549 28.7533 30.8797 28.2661 31.7114 27.9097C32.5431 27.5532 33.4342 27.375 34.3848 27.375C35.4303 27.375 36.4284 27.6126 37.3789 28.0879L37.3433 28.0522L50.4604 14.9351L53.6685 18.1431L40.5513 31.2603L40.5156 31.2246ZM34.3848 36.5C35.0026 36.5 35.5373 36.2743 35.9888 35.8228C36.4403 35.3713 36.666 34.8366 36.666 34.2188C36.666 33.6009 36.4403 33.0662 35.9888 32.6147C35.5373 32.1632 35.0026 31.9375 34.3848 31.9375C33.7669 31.9375 33.2323 32.1632 32.7808 32.6147C32.3293 33.0662 32.1035 33.6009 32.1035 34.2188C32.1035 34.8366 32.3293 35.3713 32.7808 35.8228C33.2323 36.2743 33.7669 36.5 34.3848 36.5ZM57.1973 23.9531C57.9339 25.569 58.4805 27.2324 58.8369 28.9434C59.1934 30.6543 59.3835 32.4128 59.4072 34.2188C59.4072 37.5456 58.7894 40.7417 57.5537 43.8071C56.318 46.8726 54.512 49.5934 52.1357 51.9697L48.8921 48.7261C50.8169 46.8013 52.3021 44.6032 53.3477 42.1318C54.3932 39.6605 54.916 37.0584 54.916 34.3257C54.916 31.3791 54.2982 28.5394 53.0625 25.8066L57.1973 23.9531ZM42.7969 15.541C40.0641 14.3053 37.2244 13.6875 34.2778 13.6875C32.4006 13.6875 30.5946 13.9251 28.8599 14.4004C27.1252 14.8757 25.4974 15.5767 23.9766 16.5034C22.4557 17.4302 21.0775 18.4995 19.8418 19.7114C18.6061 20.9233 17.5487 22.3135 16.6694 23.8818C15.7902 25.4502 15.1011 27.078 14.6021 28.7651C14.103 30.4523 13.8535 32.2702 13.8535 34.2188C13.8535 36.9515 14.3763 39.5654 15.4219 42.0605C16.4674 44.5557 17.9526 46.7775 19.8774 48.7261L16.6338 51.9697C14.2575 49.5934 12.4396 46.8844 11.1802 43.8428C9.92074 40.8011 9.29102 37.5931 9.29102 34.2188C9.29102 31.9137 9.58805 29.6919 10.1821 27.5532C10.7762 25.4146 11.6198 23.4185 12.7129 21.5649C13.806 19.7114 15.113 18.0243 16.6338 16.5034C18.1546 14.9826 19.8418 13.6875 21.6953 12.6182C23.5488 11.5488 25.5449 10.7052 27.6836 10.0874C29.8223 9.46956 32.056 9.17253 34.3848 9.19629C36.167 9.19629 37.9136 9.37451 39.6245 9.73096C41.3354 10.0874 43.0107 10.6458 44.6504 11.4062L42.7969 15.541Z" fill="#3C4BBE"/>
</g>
<defs>
<clipPath id="clip0_154_615">
<rect width="73" height="73" fill="white" transform="translate(0.166016)"/>
</clipPath>
</defs>
</svg>
