<svg width="74" height="73" viewBox="0 0 74 73" fill="none" xmlns="http://www.w3.org/2000/svg">
<path d="M16.3984 0.243835C15.8502 0.514725 15.4751 1.1278 15.4751 1.76939C15.4751 2.01177 15.6482 2.88148 15.8502 3.69416C16.3263 5.64744 16.7735 8.24231 16.9466 10.2669C17.1919 13.1041 17.3217 12.7192 15.403 14.7865C14.4796 15.7988 13.614 16.6543 13.4986 16.7113C13.3688 16.7683 10.6854 17.4954 7.51146 18.3224C4.35198 19.1493 1.58202 19.9192 1.35119 20.0475C0.875099 20.2757 0.5 20.9173 0.5 21.459C0.5 21.8725 2.88043 30.8262 3.09684 31.2397C3.35652 31.7102 3.9913 32.0809 4.55395 32.0809C4.84249 32.0809 6.54486 31.6959 8.33379 31.2254C10.1083 30.7549 11.6375 30.37 11.7241 30.37C11.8107 30.37 11.2192 31.6674 10.3968 33.25C7.17964 39.5376 5.66482 44.0144 5.10217 48.8905C4.85692 51.0434 5.01561 56.1761 5.39071 58.4716C5.79466 61.0094 6.12648 62.3354 6.38617 62.6348C6.74684 63.034 7.71344 62.9199 7.98755 62.4209C8.18953 62.0787 8.1751 61.8506 7.81443 59.9971C7.23735 56.946 7.09308 55.506 7.07866 52.7543C7.06423 50.4303 7.32391 47.2937 7.56917 46.923C7.8 46.5523 12.2579 48.2774 15.2731 49.9171C20.2648 52.626 25.1123 56.3615 30.883 61.9076C33.3356 64.2601 34.0858 64.9017 34.9225 65.3437C35.4996 65.6289 36.0623 65.8712 36.1921 65.8712C36.3941 65.8712 36.4229 66.1706 36.4229 68.3663V70.8614L23.6984 70.8329L10.9595 70.7901L10.1516 68.4518C9.67549 67.0974 9.22826 66.0281 9.06957 65.914C8.43478 65.4578 7.4249 65.914 7.4249 66.6411C7.4249 67.0404 8.60791 70.6333 9.05514 71.5457C9.22826 71.9307 9.57451 72.3156 9.92075 72.5438L10.5123 72.9287L37.3462 72.9715L64.1947 73L64.8439 72.6863C65.2045 72.501 65.6374 72.1445 65.8105 71.8737C66.1856 71.3319 67.787 66.6269 68.4362 64.1603C69.5615 59.9544 70.052 56.3615 70.0664 52.5404C70.0664 46.3242 68.768 41.5336 65.1324 34.2623C64.137 32.2805 63.3723 30.6551 63.43 30.6551C63.4877 30.6551 64.7429 30.9688 66.2144 31.368C67.686 31.753 69.1431 32.0809 69.446 32.0809C70.0087 32.0809 70.6435 31.7102 70.9032 31.2397C71.1196 30.8262 73.5 21.8725 73.5 21.459C73.5 20.9173 73.1249 20.2899 72.6632 20.0475C72.2304 19.8337 68.5804 18.8214 68.2198 18.8214C67.8879 18.8214 67.2964 19.4772 67.2964 19.8622C67.2964 20.5466 67.7004 20.8032 69.5326 21.2737C70.4848 21.5161 71.2783 21.7299 71.3071 21.7442C71.3504 21.7727 69.1864 29.8425 69.0998 29.9137C69.071 29.9423 66.1134 29.1866 62.5067 28.2456C58.9 27.2904 55.7838 26.5205 55.5818 26.5205C55.2644 26.5205 48.152 29.2151 45.4109 30.3843C44.9925 30.5696 44.6174 30.6694 44.5597 30.6266C44.3577 30.427 44.2567 29.4718 44.3721 29.0155C44.6462 28.0603 45.0935 27.7323 47.3585 26.8626C49.9121 25.8931 50.8931 25.3371 51.8164 24.3391C53.9083 22.0579 54.3411 18.8927 52.9273 16.0412C52.5233 15.2285 50.7777 13.1754 50.2439 12.876C49.8111 12.6479 48.8012 12.6479 46.9545 12.9045C45.2377 13.1469 45.0069 13.2752 44.0836 14.4586C43.3478 15.4138 42.7419 15.8273 42.0783 15.8273C41.5589 15.8273 40.6933 15.5136 40.549 15.2855C40.4625 15.1287 43.0304 11.1651 43.4344 10.8372C43.5498 10.7374 45.2522 10.4665 47.2287 10.2241C50.5901 9.82489 50.8498 9.81063 51.1816 10.0245C51.3836 10.1528 53.2158 12.0633 55.2644 14.2875C57.313 16.5117 59.0876 18.3937 59.1885 18.4792C59.304 18.5505 60.3138 18.8642 61.4536 19.1493C63.733 19.7339 64.0937 19.7196 64.4111 18.9782C64.5842 18.5648 64.4255 17.9374 64.1225 17.7521C64.036 17.695 63.1559 17.4384 62.1749 17.1818L60.386 16.7113L59.6069 15.8843C58.3806 14.5727 58.0921 14.202 57.9911 13.817C57.8468 13.2752 58.1787 8.94093 58.496 7.05894C58.6547 6.11794 59.001 4.50684 59.2462 3.48029L59.6935 1.61256L59.4194 1.05651C58.8567 -0.0840912 60.6889 0.00145721 37.5049 0.00145721C18.75 0.00145721 16.8312 0.0299759 16.3984 0.243835ZM57.3419 2.29692C57.3419 2.38246 57.2409 2.82445 57.1255 3.26643C56.736 4.77773 56.2022 7.91438 56.0291 9.76786C55.9425 10.7801 55.8415 11.6356 55.8271 11.6641C55.7982 11.6926 55.4087 11.3077 54.947 10.8087C52.7109 8.44192 52.3935 8.17102 51.5711 7.92864C50.8065 7.70052 50.6334 7.71478 47.0988 8.12825C42.2081 8.71281 42.2947 8.68429 40.5634 11.1936C38.385 14.3588 38.1109 14.8863 38.1974 15.5849C38.2984 16.2836 38.8611 16.8539 40.0585 17.4242C41.5445 18.137 43.0449 18.0515 44.3144 17.2103C44.9059 16.8111 45.685 15.9699 46.0601 15.314C46.1322 15.1857 46.6804 15.0431 47.6759 14.9148L49.1907 14.7152L49.9409 15.5136C52.2204 17.9517 52.2348 21.0741 49.9986 23.1414C49.1907 23.8828 48.7146 24.1252 45.9447 25.1803C44.4443 25.7506 44.0403 25.9644 43.4777 26.5205C42.1504 27.8322 41.833 29.8425 42.6842 31.5676C43.0881 32.3946 43.4488 32.694 44.1557 32.8508C44.6751 32.9649 44.3 33.0932 50.5613 30.5981C53.2158 29.5288 55.5097 28.6591 55.6684 28.6591C56.1156 28.6591 60.285 29.8139 60.4581 29.985C60.5591 30.0848 61.0208 30.9118 61.5113 31.8243L62.4057 33.4924L61.8575 33.7633C60.7899 34.3051 56.2022 36.0587 54.1536 36.7146C48.2674 38.5966 43.997 39.3237 38.2696 39.452C31.6765 39.5946 26.9156 38.8817 20.5534 36.7859C17.7834 35.8734 13.4121 34.1482 12.835 33.749C12.6042 33.5779 12.6763 33.4068 13.7006 31.5391C14.7826 29.5573 14.8115 29.5145 15.403 29.372C15.7348 29.2864 16.4706 29.0868 17.0332 28.93C17.5814 28.7874 18.1729 28.6591 18.3316 28.6591C18.4759 28.6591 20.7842 29.5288 23.4387 30.5981C29.7 33.0932 29.3249 32.9649 29.8443 32.8508C30.5656 32.694 30.9119 32.3946 31.3302 31.5391C31.6765 30.8547 31.7342 30.5411 31.7342 29.5858C31.7342 28.6306 31.6765 28.3169 31.3302 27.6325C30.7099 26.3779 30.0751 25.9502 27.3051 24.8666C25.1988 24.0539 24.766 23.84 24.0735 23.2127C21.7652 21.1169 21.7508 17.9802 24.0591 15.5136L24.8093 14.7152L26.3241 14.9148C27.3196 15.0431 27.8678 15.1857 27.9399 15.314C28.315 15.9699 29.0941 16.8111 29.6856 17.2103C30.9551 18.0515 32.4555 18.137 33.9415 17.4242C35.1389 16.8539 35.7016 16.2836 35.8026 15.5849C35.8891 14.8863 35.615 14.3588 33.4366 11.1936C31.7053 8.67004 31.7919 8.71281 26.9012 8.12825C22.1692 7.5722 22.198 7.55795 20.3947 9.42568L19.1395 10.7089L19.0385 9.81063C18.7789 7.35835 18.2306 4.35001 17.7257 2.45375L17.6391 2.14008H37.4905C51.8885 2.14008 57.3419 2.18286 57.3419 2.29692ZM27.0743 10.2526C28.8921 10.4807 30.4502 10.7374 30.58 10.8372C30.9696 11.1651 33.5376 15.1287 33.451 15.2855C33.3067 15.5136 32.4411 15.8273 31.9217 15.8273C31.2581 15.8273 30.6522 15.4138 29.9164 14.4586C28.9931 13.2752 28.7623 13.1469 27.0455 12.9045C25.1988 12.6479 24.1889 12.6479 23.7561 12.876C23.3233 13.1184 21.6642 15.0004 21.217 15.7418C20.0051 17.7949 19.9474 20.7747 21.1016 22.8705C21.6065 23.7973 22.6885 24.9664 23.5542 25.4939C23.9292 25.722 25.2565 26.3209 26.4972 26.8056C28.9209 27.7466 29.3538 28.046 29.6279 29.0155C29.7433 29.4718 29.6423 30.427 29.4403 30.6266C29.3826 30.6694 29.0075 30.5696 28.5891 30.3843C25.7038 29.1724 18.7644 26.5205 18.447 26.5205C18.2306 26.5205 15.1 27.2904 11.5077 28.2456C7.90099 29.1866 4.92905 29.9423 4.88577 29.9137C4.81364 29.8425 2.6496 21.7727 2.69289 21.7442C2.72174 21.7299 5.41957 21.0171 8.68004 20.1616C11.9549 19.3061 14.7105 18.5362 14.8259 18.465C14.9269 18.3794 16.6725 16.5117 18.7211 14.3018C20.7698 12.0918 22.5731 10.1813 22.7462 10.053C23.1646 9.76786 23.2223 9.78212 27.0743 10.2526ZM63.9927 36.6005C65.0026 38.7534 66.099 41.5051 66.5607 43.0449C66.8059 43.8576 67.0079 44.5705 67.0079 44.6275C67.0079 44.6845 66.604 44.8414 66.1134 44.984C63.9061 45.5828 60.2417 47.2081 57.5439 48.7765C52.783 51.5424 48.3251 55.0213 43.1314 60.0257C41.1117 61.9789 39.6834 63.2336 39.2073 63.4902C38.1542 64.0463 37.404 64.1176 36.3652 63.7326C35.6294 63.4475 35.1966 63.1053 32.9749 60.9666C28.6901 56.8462 25.8769 54.451 22.2557 51.8561C18.3605 49.0474 13.4842 46.4667 9.97846 45.3261C7.72787 44.599 7.88656 44.9269 8.60791 42.6315C9.15613 40.9206 9.99289 38.8532 10.8874 36.9712L11.5798 35.517L13.7294 36.4437C24.9247 41.3198 35.5717 42.717 46.5217 40.7637C51.3836 39.894 57.7603 37.898 62.5356 35.7308C62.9684 35.5312 63.3435 35.3744 63.3723 35.3744C63.4012 35.3601 63.6753 35.9162 63.9927 36.6005ZM67.686 47.921C68.364 52.0129 67.9168 57.8015 66.503 63.2336C65.9836 65.2724 64.5121 69.8063 64.1802 70.4764L63.9638 70.8614H51.2826H38.587V68.3663C38.587 66.0423 38.6014 65.8712 38.8466 65.8712C39.0053 65.8712 39.5247 65.6716 40.0296 65.4293C40.7366 65.0728 41.5445 64.3885 43.7085 62.3211C50.6623 55.6628 55.553 52.0129 61.3093 49.1757C63.4445 48.1206 67.0223 46.7234 67.3686 46.8232C67.4551 46.8374 67.585 47.3365 67.686 47.921Z" fill="#3C4BBE"/>
</svg>
