<svg width="28" height="28" viewBox="0 0 28 28" fill="none" xmlns="http://www.w3.org/2000/svg">
<path d="M13.999 4.59448C11.9656 4.59448 9.97781 5.19746 8.28707 6.32718C6.59633 7.4569 5.27855 9.0626 4.50039 10.9413C3.72223 12.8199 3.51863 14.8871 3.91533 16.8815C4.31203 18.8758 5.29123 20.7078 6.72908 22.1456C8.16694 23.5835 9.99888 24.5627 11.9932 24.9594C13.9876 25.3561 16.0548 25.1525 17.9335 24.3743C19.8121 23.5962 21.4178 22.2784 22.5476 20.5877C23.6773 18.8969 24.2803 16.9092 24.2803 14.8757C24.2771 12.1499 23.1929 9.53672 21.2654 7.6093C19.338 5.68188 16.7248 4.59766 13.999 4.59448ZM13.999 23.8445C12.2252 23.8445 10.4912 23.3184 9.01625 22.3329C7.54135 21.3475 6.3918 19.9467 5.71298 18.3079C5.03416 16.6691 4.85655 14.8658 5.20261 13.126C5.54867 11.3862 6.40286 9.78816 7.65716 8.53386C8.91146 7.27956 10.5095 6.42537 12.2493 6.07931C13.9891 5.73325 15.7924 5.91086 17.4312 6.58968C19.07 7.2685 20.4708 8.41805 21.4563 9.89295C22.4418 11.3679 22.9678 13.1019 22.9678 14.8757C22.9649 17.2535 22.019 19.533 20.3377 21.2144C18.6563 22.8957 16.3768 23.8416 13.999 23.8445ZM18.8378 10.037C18.9607 10.16 19.0297 10.3268 19.0297 10.5007C19.0297 10.6746 18.9607 10.8414 18.8378 10.9645L14.4628 15.3395C14.4027 15.4039 14.3302 15.4557 14.2497 15.4915C14.1692 15.5274 14.0823 15.5467 13.9942 15.5482C13.9061 15.5498 13.8186 15.5336 13.7369 15.5006C13.6552 15.4676 13.5809 15.4184 13.5186 15.3561C13.4563 15.2938 13.4072 15.2196 13.3742 15.1379C13.3412 15.0561 13.3249 14.9686 13.3265 14.8805C13.3281 14.7924 13.3473 14.7055 13.3832 14.625C13.4191 14.5445 13.4708 14.472 13.5353 14.412L17.9103 10.037C18.0333 9.91408 18.2001 9.84505 18.374 9.84505C18.5479 9.84505 18.7147 9.91408 18.8378 10.037ZM10.7178 1.75073C10.7178 1.57668 10.7869 1.40976 10.91 1.28669C11.0331 1.16362 11.2 1.09448 11.374 1.09448H16.624C16.7981 1.09448 16.965 1.16362 17.0881 1.28669C17.2111 1.40976 17.2803 1.57668 17.2803 1.75073C17.2803 1.92478 17.2111 2.0917 17.0881 2.21477C16.965 2.33784 16.7981 2.40698 16.624 2.40698H11.374C11.2 2.40698 11.0331 2.33784 10.91 2.21477C10.7869 2.0917 10.7178 1.92478 10.7178 1.75073Z" fill="white"/>
</svg>
