<svg width="74" height="73" viewBox="0 0 74 73" fill="none" xmlns="http://www.w3.org/2000/svg">
<path fill-rule="evenodd" clip-rule="evenodd" d="M27.8742 38.4923V9.12499H30.9159V40.0937C30.9159 41.9491 28.7822 43.0441 27.2811 41.8822L9.37479 28.0016L11.2378 25.5987L20.1758 32.5261L19.0731 22.5266L22.0966 22.1935L23.5216 35.1206L27.8742 38.4923ZM40.0409 30.8029V9.12499H43.0825V29.5498L46.3417 27.9042L48.4404 18.3747L51.4122 19.0287L49.8457 26.137L61.4086 20.3031L62.7773 23.0193L43.3563 32.8165C41.9009 33.5526 40.0409 32.558 40.0409 30.8029ZM63.6746 26.2709L65.0738 28.9719L55.8134 33.7777L63.9727 35.7624L63.2549 38.7174L51.7057 35.9084L43.8734 39.9736C43.6383 40.091 43.4401 40.2709 43.3006 40.4936C43.1611 40.7163 43.0856 40.9731 43.0825 41.2359V63.875H40.0409V41.2343C40.0409 39.5584 40.9899 38.0421 42.4712 37.2741L63.6731 26.2724L63.6746 26.2709ZM14.3205 40.9499L7.17871 35.4902L9.025 33.0736L29.1548 48.4629C29.7024 48.8818 30.1462 49.4214 30.4516 50.0396C30.7571 50.6578 30.9159 51.3381 30.9159 52.0277V63.875H27.8742V52.0277C27.8748 51.8056 27.8241 51.5864 27.7263 51.387C27.6285 51.1876 27.486 51.0134 27.31 50.8779L17.4094 43.3072L9.20902 45.3741L8.46534 42.4236L14.3205 40.9484V40.9499Z" fill="#3C4BBE"/>
<path d="M38.866 19.5427C39.0787 19.8856 39.1466 20.2989 39.0546 20.6918C38.9626 21.0846 38.7183 21.4249 38.3755 21.6377C38.0326 21.8504 37.6193 21.9183 37.2264 21.8263C36.8336 21.7343 36.4933 21.49 36.2805 21.1472C36.0678 20.8043 35.9999 20.391 36.0919 19.9981C36.1839 19.6053 36.4282 19.265 36.771 19.0522C37.1139 18.8395 37.5272 18.7716 37.9201 18.8636C38.3129 18.9556 38.6532 19.1999 38.866 19.5427ZM35.8243 33.2302C36.0371 33.5731 36.1049 33.9864 36.0129 34.3793C35.9209 34.7721 35.6767 35.1124 35.3338 35.3252C34.991 35.5379 34.5776 35.6058 34.1848 35.5138C33.7919 35.4218 33.4516 35.1775 33.2389 34.8347C33.1334 34.6649 33.0624 34.4761 33.03 34.2789C32.9975 34.0817 33.0042 33.88 33.0497 33.6854C33.0952 33.4908 33.1785 33.3071 33.295 33.1447C33.4115 32.9823 33.5588 32.8444 33.7286 32.739C33.8983 32.6335 34.0872 32.5625 34.2844 32.5301C34.4816 32.4976 34.6832 32.5043 34.8779 32.5498C35.0725 32.5953 35.2562 32.6786 35.4186 32.7951C35.581 32.9116 35.7188 33.0604 35.8243 33.2302ZM37.3451 43.876C37.4505 44.0458 37.5214 44.2347 37.5537 44.4318C37.5861 44.629 37.5793 44.8306 37.5338 45.0251C37.4882 45.2196 37.4048 45.4033 37.2883 45.5656C37.1718 45.7279 37.0244 45.8656 36.8546 45.971C36.6849 46.0763 36.496 46.1472 36.2989 46.1796C36.1017 46.212 35.9001 46.2052 35.7056 46.1596C35.5111 46.1141 35.3274 46.0307 35.1651 45.9142C35.0028 45.7976 34.8651 45.6503 34.7597 45.4805C34.5467 45.1377 34.4787 44.7243 34.5705 44.3312C34.6624 43.9382 34.9066 43.5978 35.2494 43.3848C35.5923 43.1718 36.0057 43.1038 36.3987 43.1956C36.7917 43.2875 37.1321 43.5332 37.3451 43.876ZM35.8243 57.5635C35.9296 57.7333 36.0005 57.9222 36.0329 58.1193C36.0653 58.3165 36.0585 58.5181 36.0129 58.7126C35.9674 58.9071 35.884 59.0908 35.7674 59.2531C35.6509 59.4154 35.5036 59.5531 35.3338 59.6585C34.991 59.8713 34.5776 59.9391 34.1848 59.8471C33.7919 59.7552 33.4516 59.5109 33.2389 59.168C33.1334 58.9983 33.0624 58.8094 33.03 58.6122C32.9975 58.415 33.0042 58.2133 33.0497 58.0187C33.0952 57.8241 33.1785 57.6404 33.295 57.478C33.4115 57.3156 33.5588 57.1778 33.7286 57.0723C33.8983 56.9669 34.0872 56.8959 34.2844 56.8634C34.4816 56.831 34.6832 56.8377 34.8779 56.8831C35.2709 56.975 35.6113 57.2207 35.8243 57.5635ZM35.8243 13.4594C36.0371 13.8022 36.1049 14.2155 36.0129 14.6084C35.9209 15.0013 35.6767 15.3416 35.3338 15.5543C34.991 15.7671 34.5776 15.8349 34.1848 15.743C33.7919 15.651 33.4516 15.4067 33.2389 15.0639C33.0261 14.721 32.9582 14.3077 33.0502 13.9148C33.1422 13.5219 33.3865 13.1817 33.7293 12.9689C34.0722 12.7561 34.4855 12.6883 34.8784 12.7803C35.2713 12.8722 35.6115 13.1165 35.8243 13.4594Z" fill="#3C4BBE"/>
</svg>
