<svg width="16" height="16" viewBox="0 0 16 16" fill="none" xmlns="http://www.w3.org/2000/svg">
<path d="M11.1375 8.575C11.975 7.7375 12.4375 6.62187 12.4375 5.4375C12.4375 4.25156 11.9766 3.1375 11.1375 2.3C10.3 1.4625 9.18437 1 8 1C6.81562 1 5.7 1.46094 4.8625 2.3C4.025 3.13906 3.5625 4.25156 3.5625 5.4375C3.5625 6.43437 3.88906 7.38125 4.49062 8.15469C4.60469 8.30156 4.72813 8.44062 4.86094 8.575C4.99375 8.70781 5.13437 8.83125 5.27969 8.94531C5.89844 9.42656 6.62812 9.73281 7.40625 9.83594V11.5H5.625C5.55625 11.5 5.5 11.5562 5.5 11.625V12.5625C5.5 12.6313 5.55625 12.6875 5.625 12.6875H7.40625V14.875C7.40625 14.9438 7.4625 15 7.53125 15H8.46875C8.5375 15 8.59375 14.9438 8.59375 14.875V12.6875H10.375C10.4437 12.6875 10.5 12.6313 10.5 12.5625V11.625C10.5 11.5562 10.4437 11.5 10.375 11.5H8.59375V9.83594C9.55469 9.70781 10.4406 9.27187 11.1375 8.575ZM8 8.6875C7.13125 8.6875 6.31719 8.35 5.70156 7.73594C5.0875 7.12188 4.75 6.30625 4.75 5.4375C4.75 4.56875 5.0875 3.75469 5.70156 3.13906C6.31562 2.52344 7.13125 2.1875 8 2.1875C8.86875 2.1875 9.68281 2.525 10.2984 3.13906C10.9125 3.75312 11.25 4.56875 11.25 5.4375C11.25 6.30625 10.9125 7.12031 10.2984 7.73594C9.68281 8.35 8.86875 8.6875 8 8.6875Z" fill="#FAC30A"/>
</svg>
