<svg width="28" height="28" viewBox="0 0 39 39" fill="none" xmlns="http://www.w3.org/2000/svg">
<path d="M27.1477 20.9016C29.1891 18.8602 30.3164 16.1408 30.3164 13.2539C30.3164 10.3632 29.1929 7.64766 27.1477 5.60625C25.1062 3.56484 22.3869 2.4375 19.5 2.4375C16.6131 2.4375 13.8938 3.56104 11.8523 5.60625C9.81094 7.65146 8.68359 10.3632 8.68359 13.2539C8.68359 15.6838 9.47959 17.9918 10.9459 19.8771C11.2239 20.2351 11.5248 20.574 11.8485 20.9016C12.1723 21.2253 12.515 21.5262 12.8692 21.8042C14.3774 22.9772 16.1561 23.7237 18.0527 23.9751V28.0312H13.7109C13.5434 28.0312 13.4062 28.1684 13.4062 28.3359V30.6211C13.4062 30.7887 13.5434 30.9258 13.7109 30.9258H18.0527V36.2578C18.0527 36.4254 18.1898 36.5625 18.3574 36.5625H20.6426C20.8102 36.5625 20.9473 36.4254 20.9473 36.2578V30.9258H25.2891C25.4566 30.9258 25.5938 30.7887 25.5938 30.6211V28.3359C25.5938 28.1684 25.4566 28.0312 25.2891 28.0312H20.9473V23.9751C23.2896 23.6628 25.449 22.6002 27.1477 20.9016ZM19.5 21.1758C17.3824 21.1758 15.3981 20.3531 13.8976 18.8563C12.4008 17.3596 11.5781 15.3715 11.5781 13.2539C11.5781 11.1363 12.4008 9.15205 13.8976 7.65146C15.3943 6.15088 17.3824 5.33203 19.5 5.33203C21.6176 5.33203 23.6019 6.15469 25.1024 7.65146C26.5992 9.14824 27.4219 11.1363 27.4219 13.2539C27.4219 15.3715 26.5992 17.3558 25.1024 18.8563C23.6019 20.3531 21.6176 21.1758 19.5 21.1758Z" fill="#EF5DA8"/>
</svg>
