<svg width="1440" height="620" viewBox="0 0 1440 620" fill="none" xmlns="http://www.w3.org/2000/svg">
<path d="M-554.371 451.87C-336.565 399.449 -340.904 507.718 -143.658 460.245C53.589 412.772 37.3688 309.45 234.615 261.977C431.862 214.504 448.082 317.825 645.328 270.351C842.575 222.878 826.355 119.557 1023.6 72.0835C1220.85 24.6101 1233.04 132.79 1434.31 80.4581C1635.59 28.1263 1569.71 -74.2304 1793.37 -128.061" stroke="white" stroke-opacity="0.25"/>
<path d="M-578.692 296.932C-360.886 244.51 -365.225 352.78 -167.979 305.307C29.2676 257.833 13.0475 154.512 210.294 107.039C407.54 59.5652 423.761 162.886 621.007 115.413C818.253 67.9398 802.033 -35.3815 999.28 -82.8549C1196.53 -130.328 1208.72 -22.1485 1409.99 -74.4803C1611.26 -126.812 1545.39 -229.169 1769.05 -283" stroke="white" stroke-opacity="0.25"/>
<path d="M-530.046 606.809C-312.241 554.387 -316.58 662.656 -119.333 615.183C77.9132 567.71 61.6931 464.388 258.94 416.915C456.186 369.442 472.406 472.763 669.653 425.29C866.899 377.816 850.679 274.495 1047.93 227.022C1245.17 179.548 1257.37 287.728 1458.64 235.396C1659.91 183.065 1594.03 80.7079 1817.69 26.877" stroke="white" stroke-opacity="0.25"/>
<path d="M-505.724 761.747C-287.918 709.325 -292.258 817.595 -95.011 770.122C102.235 722.648 86.0153 619.327 283.262 571.854C480.508 524.38 496.728 627.702 693.975 580.228C891.221 532.755 875.001 429.434 1072.25 381.96C1269.49 334.487 1281.69 442.667 1482.96 390.335C1684.23 338.003 1618.35 235.646 1842.01 181.815" stroke="white" stroke-opacity="0.25"/>
<path d="M-481.398 916.685C-263.593 864.264 -267.932 972.533 -70.6854 925.06C126.561 877.586 110.341 774.265 307.587 726.792C504.834 679.318 521.054 782.64 718.301 735.166C915.547 687.693 899.327 584.372 1096.57 536.898C1293.82 489.425 1306.02 597.605 1507.29 545.273C1708.56 492.941 1642.68 390.585 1866.34 336.754" stroke="white" stroke-opacity="0.25"/>
</svg>
